<svg width="96" height="96" viewBox="0 0 96 96" fill="none" xmlns="http://www.w3.org/2000/svg">
<mask id="mask0" mask-type="alpha" maskUnits="userSpaceOnUse" x="5" y="0" width="86" height="96">
<path d="M46.0351 0.608108C47.2548 -0.0797102 48.7453 -0.0797116 49.9649 0.608107L88.9649 22.6023C90.2222 23.3114 91 24.6429 91 26.0864V69.9136C91 71.3571 90.2222 72.6886 88.9649 73.3977L49.9649 95.3919C48.7453 96.0797 47.2548 96.0797 46.0351 95.3919L7.03511 73.3977C5.77776 72.6886 5 71.3571 5 69.9136V26.0864C5 24.6429 5.77776 23.3114 7.03511 22.6023L46.0351 0.608108Z" fill="white"/>
</mask>
<g mask="url(#mask0)">
<path d="M46.0154 1.13403C47.2452 0.431329 48.7548 0.43133 49.9846 1.13403L87.9845 22.8483C89.2308 23.5605 89.9999 24.8859 89.9999 26.3213V69.6787C89.9999 71.1141 89.2308 72.4395 87.9845 73.1517L49.9846 94.866C48.7548 95.5687 47.2452 95.5687 46.0154 94.866L8.0155 73.1517C6.7692 72.4395 6.00006 71.1141 6.00006 69.6787V26.3213C6.00006 24.8859 6.7692 23.5605 8.0155 22.8483L46.0154 1.13403Z" fill="url(#paint0_linear)"/>
<path fill-rule="evenodd" clip-rule="evenodd" d="M6.00009 47.7715L6.00009 47.7097L6.0549 47.7414L32 33.5L32.8622 63.2452L45.9974 70.8419C47.2364 71.5584 48.7637 71.5584 50.0026 70.8419L89.9999 47.7097V28.0865L90 28.1087V70.2263C90 71.677 89.2145 73.014 87.9473 73.7203L49.9474 94.8996C48.7368 95.5743 47.2632 95.5743 46.0527 94.8996L8.05273 73.7203C6.78555 73.014 6.0001 71.677 6.00009 70.2263L6.00009 68H5.99994L5.99997 47.7716L6.00009 47.7715Z" fill="url(#paint1_linear)"/>
<g filter="url(#filter0_dd)">
<path d="M46.016 25.3818C47.2454 24.6788 48.7548 24.6783 49.9847 25.3804L66.9886 35.0874C68.2357 35.7994 69.0055 37.1252 69.0055 38.5612V57.6565C69.0055 59.0909 68.2375 60.4154 66.9927 61.128L49.9848 70.8638C48.755 71.5678 47.2445 71.5686 46.014 70.8658L29.0207 61.1611C27.7739 60.4491 27.0043 59.1235 27.0043 57.6877V38.5735C27.0043 37.1385 27.773 35.8135 29.0188 35.1011L46.016 25.3818Z" fill="url(#paint2_linear)"/>
</g>
<path fill-rule="evenodd" clip-rule="evenodd" d="M46.0371 25.4995C46.0366 25.4998 46.0362 25.5 46.0357 25.5003L28.7489 35.2454C28.7483 35.2457 28.7477 35.2461 28.7471 35.2464C28.6664 35.292 28.5876 35.3401 28.5109 35.3906C27.7992 35.916 27.8439 37.0303 28.6448 37.4818L46.0357 47.2856C47.2551 47.973 48.745 47.973 49.9643 47.2856L67.3552 37.4818C68.1562 37.0303 68.2008 35.9161 67.4892 35.3907C67.4119 35.3397 67.3325 35.2912 67.2511 35.2454L49.9643 25.5003C48.7454 24.8132 47.2562 24.8129 46.0371 25.4995Z" fill="url(#paint3_linear)"/>
</g>
<defs>
<filter id="filter0_dd" x="19.0043" y="18.8541" width="58.0012" height="62.5382" filterUnits="userSpaceOnUse" color-interpolation-filters="sRGB">
<feFlood flood-opacity="0" result="BackgroundImageFix"/>
<feColorMatrix in="SourceAlpha" type="matrix" values="0 0 0 0 0 0 0 0 0 0 0 0 0 0 0 0 0 0 127 0"/>
<feOffset dy="0.4"/>
<feGaussianBlur stdDeviation="0.4"/>
<feColorMatrix type="matrix" values="0 0 0 0 0 0 0 0 0 0 0 0 0 0 0 0 0 0 0.24 0"/>
<feBlend mode="normal" in2="BackgroundImageFix" result="effect1_dropShadow"/>
<feColorMatrix in="SourceAlpha" type="matrix" values="0 0 0 0 0 0 0 0 0 0 0 0 0 0 0 0 0 0 127 0"/>
<feOffset dy="2"/>
<feGaussianBlur stdDeviation="4"/>
<feColorMatrix type="matrix" values="0 0 0 0 0 0 0 0 0 0 0 0 0 0 0 0 0 0 0.32 0"/>
<feBlend mode="normal" in2="effect1_dropShadow" result="effect2_dropShadow"/>
<feBlend mode="normal" in="SourceGraphic" in2="effect2_dropShadow" result="shape"/>
</filter>
<linearGradient id="paint0_linear" x1="36.8349" y1="32.4029" x2="71.1515" y2="88.4695" gradientUnits="userSpaceOnUse">
<stop stop-color="#0078D4"/>
<stop offset="1" stop-color="#2064AE"/>
</linearGradient>
<linearGradient id="paint1_linear" x1="28.3124" y1="27.8635" x2="61.8927" y2="97.1729" gradientUnits="userSpaceOnUse">
<stop stop-color="#40C4F5"/>
<stop offset="1" stop-color="#0095E6"/>
</linearGradient>
<linearGradient id="paint2_linear" x1="34.1698" y1="28.4924" x2="56.3148" y2="69.9267" gradientUnits="userSpaceOnUse">
<stop stop-color="#7CECFF"/>
<stop offset="1" stop-color="#50E6FF"/>
</linearGradient>
<linearGradient id="paint3_linear" x1="30.9296" y1="25.1699" x2="37.0033" y2="52.0398" gradientUnits="userSpaceOnUse">
<stop stop-color="#A7F2FF"/>
<stop offset="1" stop-color="#7CECFF"/>
</linearGradient>
</defs>
</svg>
