<svg width="104" height="102" viewBox="0 0 104 102" fill="none" xmlns="http://www.w3.org/2000/svg">
<mask id="mask0" mask-type="alpha" maskUnits="userSpaceOnUse" x="0" y="6" width="96" height="96">
<path fill-rule="evenodd" clip-rule="evenodd" d="M95.6804 59.5695C95.8915 57.7423 96 55.8838 96 54C96 27.4903 74.5097 6 48 6C46.1162 6 44.2577 6.10852 42.4305 6.31965C41.0015 6.92983 40 8.34796 40 10V22C17.9086 22 0 39.9086 0 62C0 84.0914 17.9086 102 40 102C62.0914 102 80 84.0914 80 62H92C93.652 62 95.0702 60.9985 95.6804 59.5695Z" fill="#8DF7DB"/>
</mask>
<g mask="url(#mask0)">
<g style="mix-blend-mode:soft-light">
<rect y="6" width="96" height="96" fill="url(#paint0_linear)"/>
</g>
<circle cx="40" cy="62" r="40" fill="url(#paint1_linear)"/>
<g filter="url(#filter0_dd)">
<path fill-rule="evenodd" clip-rule="evenodd" d="M95.6803 59.5695C95.8915 57.7423 96 55.8838 96 54C96 27.4903 74.5096 6 48 6C46.1162 6 44.2577 6.10852 42.4305 6.31965C41.0015 6.92983 40 8.34796 40 10V62H92C93.652 62 95.0701 60.9985 95.6803 59.5695Z" fill="url(#paint2_linear)"/>
</g>
<mask id="mask1" mask-type="alpha" maskUnits="userSpaceOnUse" x="40" y="6" width="56" height="56">
<path d="M95.6803 59.5695C95.8915 57.7423 96 55.8838 96 54C96 27.4903 74.5096 6 48 6C46.1162 6 44.2577 6.10852 42.4305 6.31965C41.0015 6.92983 40 8.34796 40 10V62H92C93.652 62 95.0701 60.9985 95.6803 59.5695Z" fill="url(#paint3_linear)"/>
</mask>
<g mask="url(#mask1)">
<g filter="url(#filter1_dd)">
<path d="M39.9999 36H61.9999C64.2091 36 65.9999 37.7909 65.9999 40V62H39.9999V36Z" fill="url(#paint4_linear)"/>
</g>
</g>
</g>
<defs>
<filter id="filter0_dd" x="32" y="0" width="72" height="72" filterUnits="userSpaceOnUse" color-interpolation-filters="sRGB">
<feFlood flood-opacity="0" result="BackgroundImageFix"/>
<feColorMatrix in="SourceAlpha" type="matrix" values="0 0 0 0 0 0 0 0 0 0 0 0 0 0 0 0 0 0 127 0"/>
<feOffset dy="0.4"/>
<feGaussianBlur stdDeviation="0.4"/>
<feColorMatrix type="matrix" values="0 0 0 0 0 0 0 0 0 0 0 0 0 0 0 0 0 0 0.24 0"/>
<feBlend mode="normal" in2="BackgroundImageFix" result="effect1_dropShadow"/>
<feColorMatrix in="SourceAlpha" type="matrix" values="0 0 0 0 0 0 0 0 0 0 0 0 0 0 0 0 0 0 127 0"/>
<feOffset dy="2"/>
<feGaussianBlur stdDeviation="4"/>
<feColorMatrix type="matrix" values="0 0 0 0 0 0 0 0 0 0 0 0 0 0 0 0 0 0 0.32 0"/>
<feBlend mode="normal" in2="effect1_dropShadow" result="effect2_dropShadow"/>
<feBlend mode="normal" in="SourceGraphic" in2="effect2_dropShadow" result="shape"/>
</filter>
<filter id="filter1_dd" x="31.9999" y="30" width="42" height="42" filterUnits="userSpaceOnUse" color-interpolation-filters="sRGB">
<feFlood flood-opacity="0" result="BackgroundImageFix"/>
<feColorMatrix in="SourceAlpha" type="matrix" values="0 0 0 0 0 0 0 0 0 0 0 0 0 0 0 0 0 0 127 0"/>
<feOffset dy="0.4"/>
<feGaussianBlur stdDeviation="0.4"/>
<feColorMatrix type="matrix" values="0 0 0 0 0 0 0 0 0 0 0 0 0 0 0 0 0 0 0.24 0"/>
<feBlend mode="normal" in2="BackgroundImageFix" result="effect1_dropShadow"/>
<feColorMatrix in="SourceAlpha" type="matrix" values="0 0 0 0 0 0 0 0 0 0 0 0 0 0 0 0 0 0 127 0"/>
<feOffset dy="2"/>
<feGaussianBlur stdDeviation="4"/>
<feColorMatrix type="matrix" values="0 0 0 0 0 0 0 0 0 0 0 0 0 0 0 0 0 0 0.32 0"/>
<feBlend mode="normal" in2="effect1_dropShadow" result="effect2_dropShadow"/>
<feBlend mode="normal" in="SourceGraphic" in2="effect2_dropShadow" result="shape"/>
</filter>
<linearGradient id="paint0_linear" x1="21.5" y1="6" x2="77" y2="102" gradientUnits="userSpaceOnUse">
<stop stop-color="white" stop-opacity="0.8"/>
<stop offset="0.989824" stop-opacity="0.8"/>
</linearGradient>
<linearGradient id="paint1_linear" x1="29.3665" y1="49.0025" x2="56.0964" y2="98.9126" gradientUnits="userSpaceOnUse">
<stop stop-color="#0078D4"/>
<stop offset="1" stop-color="#2064AE"/>
</linearGradient>
<linearGradient id="paint2_linear" x1="53" y1="6.5" x2="68" y2="62" gradientUnits="userSpaceOnUse">
<stop stop-color="#00CCF9"/>
<stop offset="1" stop-color="#00B1F2"/>
</linearGradient>
<linearGradient id="paint3_linear" x1="54.875" y1="5.81445" x2="86.3934" y2="57.9496" gradientUnits="userSpaceOnUse">
<stop stop-color="#40C4F5"/>
<stop offset="1" stop-color="#0095E6"/>
</linearGradient>
<linearGradient id="paint4_linear" x1="44.4356" y1="38.3113" x2="55.6023" y2="62.066" gradientUnits="userSpaceOnUse">
<stop stop-color="#7CECFF"/>
<stop offset="1" stop-color="#50E6FF"/>
</linearGradient>
</defs>
</svg>
