<svg width="96" height="96" viewBox="0 0 96 96" fill="none" xmlns="http://www.w3.org/2000/svg">
<g filter="url(#filter0_d)">
<mask id="mask0" mask-type="alpha" maskUnits="userSpaceOnUse" x="6" y="6" width="84" height="84">
<path d="M6.40625 10C6.40625 7.79086 8.19711 6 10.4062 6H62.178C63.5633 6 64.8499 6.71674 65.5791 7.89458L89.1052 45.8984C89.9026 47.1864 89.9039 48.8144 89.1086 50.1037L65.672 88.0999C64.9436 89.2809 63.6551 90 62.2675 90H10.4062C8.19711 90 6.40625 88.2091 6.40625 86V10Z" fill="black"/>
</mask>
<g mask="url(#mask0)">
<path d="M27.4062 10C27.4062 7.79086 29.1971 6 31.4062 6H62.178C63.5633 6 64.8499 6.71674 65.5791 7.89458L89.1052 45.8984C89.9026 47.1864 89.9039 48.8144 89.1086 50.1037L65.672 88.0999C64.9436 89.2809 63.6551 90 62.2675 90H31.4062C29.1971 90 27.4062 88.2091 27.4062 86V10Z" fill="url(#paint0_linear)"/>
<g filter="url(#filter1_dd)">
<path d="M6.4063 10C6.4063 7.79086 8.19716 6 10.4063 6H43.4063L68.1053 45.8984C68.9027 47.1864 68.904 48.8144 68.1087 50.1037L43.5 90H10.4063C8.19716 90 6.4063 88.2091 6.4063 86V10Z" fill="url(#paint1_linear)"/>
</g>
<g filter="url(#filter2_dd)">
<path d="M6.40625 10C6.40625 7.79086 8.19711 6 10.4062 6H22.4062L47.1052 45.8984C47.9026 47.1864 47.9039 48.8144 47.1086 50.1037L22.5 90H10.4062C8.19711 90 6.40625 88.2091 6.40625 86V10Z" fill="url(#paint2_linear)"/>
</g>
</g>
</g>
<defs>
<filter id="filter0_d" x="-4" y="-3" width="104" height="104" filterUnits="userSpaceOnUse" color-interpolation-filters="sRGB">
<feFlood flood-opacity="0" result="BackgroundImageFix"/>
<feColorMatrix in="SourceAlpha" type="matrix" values="0 0 0 0 0 0 0 0 0 0 0 0 0 0 0 0 0 0 127 0"/>
<feOffset dy="1"/>
<feGaussianBlur stdDeviation="2"/>
<feColorMatrix type="matrix" values="0 0 0 0 0 0 0 0 0 0 0 0 0 0 0 0 0 0 0.15 0"/>
<feBlend mode="hard-light" in2="BackgroundImageFix" result="effect1_dropShadow"/>
<feBlend mode="normal" in="SourceGraphic" in2="effect1_dropShadow" result="shape"/>
</filter>
<filter id="filter1_dd" x="-1.5937" y="0" width="78.2979" height="100" filterUnits="userSpaceOnUse" color-interpolation-filters="sRGB">
<feFlood flood-opacity="0" result="BackgroundImageFix"/>
<feColorMatrix in="SourceAlpha" type="matrix" values="0 0 0 0 0 0 0 0 0 0 0 0 0 0 0 0 0 0 127 0"/>
<feOffset dy="0.4"/>
<feGaussianBlur stdDeviation="0.4"/>
<feColorMatrix type="matrix" values="0 0 0 0 0 0 0 0 0 0 0 0 0 0 0 0 0 0 0.24 0"/>
<feBlend mode="normal" in2="BackgroundImageFix" result="effect1_dropShadow"/>
<feColorMatrix in="SourceAlpha" type="matrix" values="0 0 0 0 0 0 0 0 0 0 0 0 0 0 0 0 0 0 127 0"/>
<feOffset dy="2"/>
<feGaussianBlur stdDeviation="4"/>
<feColorMatrix type="matrix" values="0 0 0 0 0 0 0 0 0 0 0 0 0 0 0 0 0 0 0.32 0"/>
<feBlend mode="normal" in2="effect1_dropShadow" result="effect2_dropShadow"/>
<feBlend mode="normal" in="SourceGraphic" in2="effect2_dropShadow" result="shape"/>
</filter>
<filter id="filter2_dd" x="-1.59375" y="0" width="57.2979" height="100" filterUnits="userSpaceOnUse" color-interpolation-filters="sRGB">
<feFlood flood-opacity="0" result="BackgroundImageFix"/>
<feColorMatrix in="SourceAlpha" type="matrix" values="0 0 0 0 0 0 0 0 0 0 0 0 0 0 0 0 0 0 127 0"/>
<feOffset dy="0.4"/>
<feGaussianBlur stdDeviation="0.4"/>
<feColorMatrix type="matrix" values="0 0 0 0 0 0 0 0 0 0 0 0 0 0 0 0 0 0 0.24 0"/>
<feBlend mode="normal" in2="BackgroundImageFix" result="effect1_dropShadow"/>
<feColorMatrix in="SourceAlpha" type="matrix" values="0 0 0 0 0 0 0 0 0 0 0 0 0 0 0 0 0 0 127 0"/>
<feOffset dy="2"/>
<feGaussianBlur stdDeviation="4"/>
<feColorMatrix type="matrix" values="0 0 0 0 0 0 0 0 0 0 0 0 0 0 0 0 0 0 0.32 0"/>
<feBlend mode="normal" in2="effect1_dropShadow" result="effect2_dropShadow"/>
<feBlend mode="normal" in="SourceGraphic" in2="effect2_dropShadow" result="shape"/>
</filter>
<linearGradient id="paint0_linear" x1="90.4062" y1="90" x2="14.1969" y2="20.4805" gradientUnits="userSpaceOnUse">
<stop stop-color="#922717"/>
<stop offset="1" stop-color="#D83B01"/>
</linearGradient>
<linearGradient id="paint1_linear" x1="6.4063" y1="6" x2="86.6275" y2="67.5574" gradientUnits="userSpaceOnUse">
<stop stop-color="#F69B63"/>
<stop offset="1" stop-color="#D83B01"/>
</linearGradient>
<linearGradient id="paint2_linear" x1="46.7484" y1="90" x2="-19.9823" y2="46.2453" gradientUnits="userSpaceOnUse">
<stop stop-color="#F69B63"/>
<stop offset="1" stop-color="#FFB685"/>
</linearGradient>
</defs>
</svg>
