<svg width="112" height="112" viewBox="0 0 112 112" fill="none" xmlns="http://www.w3.org/2000/svg">
<mask id="mask0" mask-type="alpha" maskUnits="userSpaceOnUse" x="8" y="6" width="96" height="96">
<path fill-rule="evenodd" clip-rule="evenodd" d="M56 99.5062C51.9808 101.115 47.5938 102 43 102C23.67 102 8 86.33 8 67C8 55.9948 13.0793 46.1759 21.0216 39.7598C21.6748 21.0042 37.0852 6 56 6C74.9148 6 90.3252 21.0042 90.9784 39.7597C98.9207 46.1759 104 55.9948 104 67C104 86.33 88.33 102 69 102C64.4062 102 60.0192 101.115 56 99.5062Z" fill="url(#paint0_linear)"/>
</mask>
<g mask="url(#mask0)">
<path fill-rule="evenodd" clip-rule="evenodd" d="M56.0002 34.4939C68.893 39.6548 78 52.2639 78 67C78 67.4152 77.9928 67.8286 77.9784 68.2403C71.9707 73.0936 64.3247 76 56 76C47.6753 76 40.0293 73.0936 34.0216 68.2403C34.0072 67.8287 34 67.4152 34 67.0001C34 52.2639 43.1071 39.6547 56.0002 34.4939Z" fill="url(#paint1_linear)"/>
<g filter="url(#filter0_dd)">
<path fill-rule="evenodd" clip-rule="evenodd" d="M90.9784 39.7597C84.9706 34.9064 77.3247 32 69 32C49.67 32 34 47.67 34 67C34 67.4151 34.0072 67.8286 34.0216 68.2403C26.0793 61.8241 21 52.0052 21 41C21 21.67 36.67 6 56 6C74.9148 6 90.3252 21.0042 90.9784 39.7597Z" fill="url(#paint2_linear)"/>
</g>
<g filter="url(#filter1_d)">
<path fill-rule="evenodd" clip-rule="evenodd" d="M77.9784 68.2403C71.9706 73.0937 64.3247 76 56 76C36.67 76 21 60.33 21 41C21 40.5849 21.0072 40.1714 21.0216 39.7598C13.0793 46.1759 8 55.9948 8 67C8 86.33 23.67 102 43 102C61.9148 102 77.3252 86.9959 77.9784 68.2403Z" fill="url(#paint3_linear)"/>
</g>
<g filter="url(#filter2_dd)">
<path fill-rule="evenodd" clip-rule="evenodd" d="M56 99.5062C68.8929 94.3453 78 81.7362 78 67C78 52.2638 68.8929 39.6547 56 34.4938C60.0192 32.885 64.4062 32 69 32C88.33 32 104 47.67 104 67C104 86.33 88.33 102 69 102C64.4062 102 60.0192 101.115 56 99.5062Z" fill="url(#paint4_linear)"/>
</g>
</g>
<defs>
<filter id="filter0_dd" x="13" y="0" width="85.9784" height="78.2403" filterUnits="userSpaceOnUse" color-interpolation-filters="sRGB">
<feFlood flood-opacity="0" result="BackgroundImageFix"/>
<feColorMatrix in="SourceAlpha" type="matrix" values="0 0 0 0 0 0 0 0 0 0 0 0 0 0 0 0 0 0 127 0"/>
<feOffset dy="0.4"/>
<feGaussianBlur stdDeviation="0.4"/>
<feColorMatrix type="matrix" values="0 0 0 0 0 0 0 0 0 0 0 0 0 0 0 0 0 0 0.24 0"/>
<feBlend mode="normal" in2="BackgroundImageFix" result="effect1_dropShadow"/>
<feColorMatrix in="SourceAlpha" type="matrix" values="0 0 0 0 0 0 0 0 0 0 0 0 0 0 0 0 0 0 127 0"/>
<feOffset dy="2"/>
<feGaussianBlur stdDeviation="4"/>
<feColorMatrix type="matrix" values="0 0 0 0 0 0 0 0 0 0 0 0 0 0 0 0 0 0 0.32 0"/>
<feBlend mode="normal" in2="effect1_dropShadow" result="effect2_dropShadow"/>
<feBlend mode="normal" in="SourceGraphic" in2="effect2_dropShadow" result="shape"/>
</filter>
<filter id="filter1_d" x="0" y="33.7598" width="85.9784" height="78.2403" filterUnits="userSpaceOnUse" color-interpolation-filters="sRGB">
<feFlood flood-opacity="0" result="BackgroundImageFix"/>
<feColorMatrix in="SourceAlpha" type="matrix" values="0 0 0 0 0 0 0 0 0 0 0 0 0 0 0 0 0 0 127 0"/>
<feOffset dy="2"/>
<feGaussianBlur stdDeviation="4"/>
<feColorMatrix type="matrix" values="0 0 0 0 0 0 0 0 0 0 0 0 0 0 0 0 0 0 0.2 0"/>
<feBlend mode="normal" in2="BackgroundImageFix" result="effect1_dropShadow"/>
<feBlend mode="normal" in="SourceGraphic" in2="effect1_dropShadow" result="shape"/>
</filter>
<filter id="filter2_dd" x="48" y="26" width="64" height="86" filterUnits="userSpaceOnUse" color-interpolation-filters="sRGB">
<feFlood flood-opacity="0" result="BackgroundImageFix"/>
<feColorMatrix in="SourceAlpha" type="matrix" values="0 0 0 0 0 0 0 0 0 0 0 0 0 0 0 0 0 0 127 0"/>
<feOffset dy="0.4"/>
<feGaussianBlur stdDeviation="0.4"/>
<feColorMatrix type="matrix" values="0 0 0 0 0 0 0 0 0 0 0 0 0 0 0 0 0 0 0.24 0"/>
<feBlend mode="normal" in2="BackgroundImageFix" result="effect1_dropShadow"/>
<feColorMatrix in="SourceAlpha" type="matrix" values="0 0 0 0 0 0 0 0 0 0 0 0 0 0 0 0 0 0 127 0"/>
<feOffset dy="2"/>
<feGaussianBlur stdDeviation="4"/>
<feColorMatrix type="matrix" values="0 0 0 0 0 0 0 0 0 0 0 0 0 0 0 0 0 0 0.32 0"/>
<feBlend mode="normal" in2="effect1_dropShadow" result="effect2_dropShadow"/>
<feBlend mode="normal" in="SourceGraphic" in2="effect2_dropShadow" result="shape"/>
</filter>
<linearGradient id="paint0_linear" x1="39" y1="60.5" x2="96.1654" y2="115.795" gradientUnits="userSpaceOnUse">
<stop stop-color="#40C4F5"/>
<stop offset="1" stop-color="#0095E6"/>
</linearGradient>
<linearGradient id="paint1_linear" x1="34" y1="34.4939" x2="76.9202" y2="77.088" gradientUnits="userSpaceOnUse">
<stop stop-color="#2064AE"/>
<stop offset="1" stop-color="#27518A"/>
</linearGradient>
<linearGradient id="paint2_linear" x1="32.9384" y1="11.533" x2="57.6484" y2="70.6329" gradientUnits="userSpaceOnUse">
<stop stop-color="#7CECFF"/>
<stop offset="1" stop-color="#50E6FF"/>
</linearGradient>
<linearGradient id="paint3_linear" x1="39" y1="60.5" x2="96.1654" y2="115.795" gradientUnits="userSpaceOnUse">
<stop stop-color="#40C4F5"/>
<stop offset="1" stop-color="#0095E6"/>
</linearGradient>
<linearGradient id="paint4_linear" x1="53.5" y1="32" x2="88.5" y2="94" gradientUnits="userSpaceOnUse">
<stop stop-color="#0095E6"/>
<stop offset="1" stop-color="#0078D4"/>
</linearGradient>
</defs>
</svg>
