<svg width="96" height="96" viewBox="0 0 96 96" fill="none" xmlns="http://www.w3.org/2000/svg">
<mask id="mask0" mask-type="alpha" maskUnits="userSpaceOnUse" x="6" y="0" width="84" height="95">
<path d="M6.00002 25.9468C6.00002 24.5013 6.77997 23.1682 8.04013 22.4599L46.0401 1.10157C47.2571 0.417515 48.7428 0.417515 49.9598 1.10157L87.9589 22.4593C89.2196 23.1679 89.9996 24.5018 89.999 25.948L89.9814 68.1893C89.9805 70.3978 88.1899 72.1876 85.9814 72.1876H48V92.5443C48 94.082 46.337 95.0445 45.0036 94.2784L8.00729 73.0221C6.76558 72.3087 6 70.9859 6 69.5538L6.00002 25.9468Z" fill="white"/>
</mask>
<g mask="url(#mask0)">
<path d="M90 23.5826L48 0V48.2132L90 72.1142V23.5826Z" fill="url(#paint0_linear)"/>
<path d="M90 72.1142L47.9796 48.2289V72.1027H89.9797L90 72.1142Z" fill="url(#paint1_linear)"/>
<g filter="url(#filter0_dd)">
<path d="M48 48.2114L6.00008 23.5807L6.00006 71.7939L48 95.9005V48.2114Z" fill="url(#paint2_linear)"/>
</g>
<path d="M48 0L6 23.5826L48 48.2133L48 0Z" fill="url(#paint3_linear)"/>
</g>
<defs>
<filter id="filter0_dd" x="-1.99994" y="17.5807" width="58" height="88.3198" filterUnits="userSpaceOnUse" color-interpolation-filters="sRGB">
<feFlood flood-opacity="0" result="BackgroundImageFix"/>
<feColorMatrix in="SourceAlpha" type="matrix" values="0 0 0 0 0 0 0 0 0 0 0 0 0 0 0 0 0 0 127 0"/>
<feOffset dy="0.4"/>
<feGaussianBlur stdDeviation="0.4"/>
<feColorMatrix type="matrix" values="0 0 0 0 0 0 0 0 0 0 0 0 0 0 0 0 0 0 0.24 0"/>
<feBlend mode="normal" in2="BackgroundImageFix" result="effect1_dropShadow"/>
<feColorMatrix in="SourceAlpha" type="matrix" values="0 0 0 0 0 0 0 0 0 0 0 0 0 0 0 0 0 0 127 0"/>
<feOffset dy="2"/>
<feGaussianBlur stdDeviation="4"/>
<feColorMatrix type="matrix" values="0 0 0 0 0 0 0 0 0 0 0 0 0 0 0 0 0 0 0.32 0"/>
<feBlend mode="normal" in2="effect1_dropShadow" result="effect2_dropShadow"/>
<feBlend mode="normal" in="SourceGraphic" in2="effect2_dropShadow" result="shape"/>
</filter>
<linearGradient id="paint0_linear" x1="48" y1="0" x2="110.618" y2="39.0732" gradientUnits="userSpaceOnUse">
<stop stop-color="#8661C5"/>
<stop offset="1" stop-color="#5C428B"/>
</linearGradient>
<linearGradient id="paint1_linear" x1="47.9796" y1="48.2289" x2="66.8489" y2="84.6995" gradientUnits="userSpaceOnUse">
<stop stop-color="#F8ECFF"/>
<stop offset="1" stop-color="#F1D9FF"/>
</linearGradient>
<linearGradient id="paint2_linear" x1="6.00006" y1="23.5807" x2="46.8134" y2="96.5641" gradientUnits="userSpaceOnUse">
<stop stop-color="#CD9EF0"/>
<stop offset="1" stop-color="#9F75D3"/>
</linearGradient>
<linearGradient id="paint3_linear" x1="4.71053" y1="2.98704e-07" x2="48.1948" y2="48.0369" gradientUnits="userSpaceOnUse">
<stop stop-color="#F1D9FF"/>
<stop offset="1" stop-color="#E4B4FF"/>
</linearGradient>
</defs>
</svg>
