<svg width="96" height="96" viewBox="0 0 96 96" fill="none" xmlns="http://www.w3.org/2000/svg">
<g clip-path="url(#clip0)">
<mask id="mask0" mask-type="alpha" maskUnits="userSpaceOnUse" x="10" y="0" width="78" height="96">
<path d="M14 0C11.7909 0 10 1.79086 10 4V26C10 28.2091 11.7909 30 14 30H40C30.0589 30 22 38.0589 22 48C22 57.9411 30.0589 66 40 66H14C11.7909 66 10 67.7909 10 70V92C10 94.2091 11.7909 96 14 96H40C66.5097 96 88 74.5097 88 48C88 21.4903 66.5097 0 40 0H14Z" fill="black"/>
</mask>
<g mask="url(#mask0)">
<path fill-rule="evenodd" clip-rule="evenodd" d="M14 0C11.7909 0 10 1.79086 10 4V26C10 28.2091 11.7909 30 14 30H40V0H14ZM14.0001 66C11.7909 66 10.0001 67.7909 10.0001 70V92C10.0001 94.2091 11.7909 96 14.0001 96H40.0001V66H14.0001Z" fill="url(#paint0_linear)"/>
<path d="M40.0001 96C66.5097 96 88.0001 74.5097 88.0001 48C88.0001 21.4903 66.5097 0 40.0001 0V96Z" fill="url(#paint1_linear)"/>
<g filter="url(#filter0_dd)">
<circle cx="40.0001" cy="48" r="18" fill="url(#paint2_linear)"/>
</g>
</g>
</g>
<defs>
<filter id="filter0_dd" x="14.0001" y="24" width="52" height="52" filterUnits="userSpaceOnUse" color-interpolation-filters="sRGB">
<feFlood flood-opacity="0" result="BackgroundImageFix"/>
<feColorMatrix in="SourceAlpha" type="matrix" values="0 0 0 0 0 0 0 0 0 0 0 0 0 0 0 0 0 0 127 0"/>
<feOffset dy="0.4"/>
<feGaussianBlur stdDeviation="0.4"/>
<feColorMatrix type="matrix" values="0 0 0 0 0 0 0 0 0 0 0 0 0 0 0 0 0 0 0.24 0"/>
<feBlend mode="normal" in2="BackgroundImageFix" result="effect1_dropShadow"/>
<feColorMatrix in="SourceAlpha" type="matrix" values="0 0 0 0 0 0 0 0 0 0 0 0 0 0 0 0 0 0 127 0"/>
<feOffset dy="2"/>
<feGaussianBlur stdDeviation="4"/>
<feColorMatrix type="matrix" values="0 0 0 0 0 0 0 0 0 0 0 0 0 0 0 0 0 0 0.32 0"/>
<feBlend mode="normal" in2="effect1_dropShadow" result="effect2_dropShadow"/>
<feBlend mode="normal" in="SourceGraphic" in2="effect2_dropShadow" result="shape"/>
</filter>
<linearGradient id="paint0_linear" x1="25" y1="0" x2="56.5" y2="96.5" gradientUnits="userSpaceOnUse">
<stop stop-color="#EA8200"/>
<stop offset="1" stop-color="#C46A08"/>
</linearGradient>
<linearGradient id="paint1_linear" x1="40.5001" y1="0.5" x2="88.5001" y2="96.5" gradientUnits="userSpaceOnUse">
<stop stop-color="#FDC400"/>
<stop offset="1" stop-color="#F29800"/>
</linearGradient>
<linearGradient id="paint2_linear" x1="40.0001" y1="30" x2="58.5001" y2="66.5" gradientUnits="userSpaceOnUse">
<stop stop-color="#FFE440"/>
<stop offset="1" stop-color="#FFDB00"/>
</linearGradient>
<clipPath id="clip0">
<path d="M0 0H96V96H0V0Z" fill="white"/>
</clipPath>
</defs>
</svg>
