<svg width="100" height="96" viewBox="0 0 100 96" fill="none" xmlns="http://www.w3.org/2000/svg">
<mask id="mask0" mask-type="alpha" maskUnits="userSpaceOnUse" x="6" y="6" width="90" height="84">
<path d="M6 10C6 7.79086 7.79086 6 10 6H52C54.2091 6 56 7.79086 56 10V27H92C94.2091 27 96 28.7909 96 31V65C96 67.2091 94.2091 69 92 69H56V86C56 88.2091 54.2091 90 52 90H10C7.79086 90 6 88.2091 6 86V56C6 53.7909 7.79086 52 10 52H46V44H10C7.79086 44 6 42.2091 6 40V10Z" fill="url(#paint0_linear)"/>
</mask>
<g mask="url(#mask0)">
<path d="M6 10C6 7.79086 7.79086 6 10 6H52C54.2091 6 56 7.79086 56 10V40C56 42.2091 54.2091 44 52 44H10C7.79086 44 6 42.2091 6 40V10Z" fill="url(#paint1_linear)"/>
<path d="M6 86C6 88.2091 7.79086 90 10 90H52C54.2091 90 56 88.2091 56 86V56C56 53.7909 54.2091 52 52 52H10C7.79086 52 6 53.7909 6 56V86Z" fill="url(#paint2_linear)"/>
<g filter="url(#filter0_d)">
<rect x="46" y="27" width="50" height="42" rx="4" fill="url(#paint3_linear)"/>
</g>
</g>
<defs>
<filter id="filter0_d" x="42" y="25" width="58" height="50" filterUnits="userSpaceOnUse" color-interpolation-filters="sRGB">
<feFlood flood-opacity="0" result="BackgroundImageFix"/>
<feColorMatrix in="SourceAlpha" type="matrix" values="0 0 0 0 0 0 0 0 0 0 0 0 0 0 0 0 0 0 127 0"/>
<feOffset dy="2"/>
<feGaussianBlur stdDeviation="2"/>
<feColorMatrix type="matrix" values="0 0 0 0 0 0 0 0 0 0 0 0 0 0 0 0 0 0 0.25 0"/>
<feBlend mode="normal" in2="BackgroundImageFix" result="effect1_dropShadow"/>
<feBlend mode="normal" in="SourceGraphic" in2="effect1_dropShadow" result="shape"/>
</filter>
<linearGradient id="paint0_linear" x1="6" y1="6" x2="87.7149" y2="94.4181" gradientUnits="userSpaceOnUse">
<stop stop-color="#FFC8A3"/>
<stop offset="1" stop-color="#F8B48A"/>
</linearGradient>
<linearGradient id="paint1_linear" x1="56" y1="44" x2="25.5544" y2="-5.92484" gradientUnits="userSpaceOnUse">
<stop stop-color="#D83B01"/>
<stop offset="1" stop-color="#ED7E43"/>
</linearGradient>
<linearGradient id="paint2_linear" x1="71.625" y1="112.023" x2="-16.6902" y2="76.6425" gradientUnits="userSpaceOnUse">
<stop offset="0.00414767" stop-color="#922717"/>
<stop offset="1" stop-color="#D83B01"/>
</linearGradient>
<linearGradient id="paint3_linear" x1="46" y1="27" x2="86.2989" y2="75.4496" gradientUnits="userSpaceOnUse">
<stop stop-color="#FFC8A3"/>
<stop offset="1" stop-color="#F8B48A"/>
</linearGradient>
</defs>
</svg>
