<svg width="100" height="102" viewBox="0 0 100 102" fill="none" xmlns="http://www.w3.org/2000/svg">
<mask id="mask0" mask-type="alpha" maskUnits="userSpaceOnUse" x="8" y="6" width="84" height="96">
<path d="M10.4615 22.9743C8.97095 23.5954 8 25.0518 8 26.6666V71.9999C8 86.5701 38.8517 98.202 47.6712 101.229C49.1968 101.753 50.8032 101.753 52.3288 101.229C61.1483 98.202 92 86.5701 92 71.9999L92 26.6666C92 25.0518 91.029 23.5954 89.5384 22.9743L51.5384 7.14094C50.5538 6.73069 49.4461 6.73069 48.4615 7.14094L10.4615 22.9743Z" fill="url(#paint0_linear)"/>
</mask>
<g mask="url(#mask0)">
<path d="M92 72C92 86.5702 61.1483 98.202 52.3288 101.23C50.8032 101.753 49.1968 101.753 47.6712 101.23C38.8517 98.202 8 86.5702 8 72C8 48.804 26.804 30 50 30C73.196 30 92 48.804 92 72Z" fill="url(#paint1_linear)"/>
<g filter="url(#filter0_dd)">
<path d="M8 48L48.4615 31.141C49.4461 30.7308 50.5538 30.7308 51.5384 31.141L92 48V72L51.5384 55.141C50.5538 54.7308 49.4461 54.7308 48.4615 55.141L8 72V48Z" fill="url(#paint2_linear)"/>
</g>
<g filter="url(#filter1_dd)">
<path d="M8 26.6667C8 25.0519 8.97095 23.5954 10.4615 22.9744L48.4615 7.14103C49.4461 6.73077 50.5538 6.73077 51.5384 7.14103L89.5384 22.9744C91.029 23.5954 92 25.0519 92 26.6667V48L51.5384 31.141C50.5538 30.7308 49.4461 30.7308 48.4615 31.141L8 48V26.6667Z" fill="url(#paint3_linear)"/>
</g>
</g>
<defs>
<filter id="filter0_dd" x="0" y="24.8334" width="100" height="57.1667" filterUnits="userSpaceOnUse" color-interpolation-filters="sRGB">
<feFlood flood-opacity="0" result="BackgroundImageFix"/>
<feColorMatrix in="SourceAlpha" type="matrix" values="0 0 0 0 0 0 0 0 0 0 0 0 0 0 0 0 0 0 127 0"/>
<feOffset dy="0.4"/>
<feGaussianBlur stdDeviation="0.4"/>
<feColorMatrix type="matrix" values="0 0 0 0 0 0 0 0 0 0 0 0 0 0 0 0 0 0 0.2 0"/>
<feBlend mode="normal" in2="BackgroundImageFix" result="effect1_dropShadow"/>
<feColorMatrix in="SourceAlpha" type="matrix" values="0 0 0 0 0 0 0 0 0 0 0 0 0 0 0 0 0 0 127 0"/>
<feOffset dy="2"/>
<feGaussianBlur stdDeviation="4"/>
<feColorMatrix type="matrix" values="0 0 0 0 0 0 0 0 0 0 0 0 0 0 0 0 0 0 0.18 0"/>
<feBlend mode="normal" in2="effect1_dropShadow" result="effect2_dropShadow"/>
<feBlend mode="normal" in="SourceGraphic" in2="effect2_dropShadow" result="shape"/>
</filter>
<filter id="filter1_dd" x="0" y="0.833374" width="100" height="57.1667" filterUnits="userSpaceOnUse" color-interpolation-filters="sRGB">
<feFlood flood-opacity="0" result="BackgroundImageFix"/>
<feColorMatrix in="SourceAlpha" type="matrix" values="0 0 0 0 0 0 0 0 0 0 0 0 0 0 0 0 0 0 127 0"/>
<feOffset dy="0.4"/>
<feGaussianBlur stdDeviation="0.4"/>
<feColorMatrix type="matrix" values="0 0 0 0 0 0 0 0 0 0 0 0 0 0 0 0 0 0 0.2 0"/>
<feBlend mode="normal" in2="BackgroundImageFix" result="effect1_dropShadow"/>
<feColorMatrix in="SourceAlpha" type="matrix" values="0 0 0 0 0 0 0 0 0 0 0 0 0 0 0 0 0 0 127 0"/>
<feOffset dy="2"/>
<feGaussianBlur stdDeviation="4"/>
<feColorMatrix type="matrix" values="0 0 0 0 0 0 0 0 0 0 0 0 0 0 0 0 0 0 0.18 0"/>
<feBlend mode="normal" in2="effect1_dropShadow" result="effect2_dropShadow"/>
<feBlend mode="normal" in="SourceGraphic" in2="effect2_dropShadow" result="shape"/>
</filter>
<linearGradient id="paint0_linear" x1="9" y1="-12.5" x2="33.3607" y2="68.6938" gradientUnits="userSpaceOnUse">
<stop stop-color="#FFED80"/>
<stop offset="0.961333" stop-color="#FFDB00"/>
</linearGradient>
<linearGradient id="paint1_linear" x1="8" y1="30" x2="104.908" y2="59.2825" gradientUnits="userSpaceOnUse">
<stop stop-color="#EA8200"/>
<stop offset="1" stop-color="#C46A08"/>
</linearGradient>
<linearGradient id="paint2_linear" x1="8" y1="30.5" x2="90.9569" y2="73.9897" gradientUnits="userSpaceOnUse">
<stop stop-color="#FAC240"/>
<stop offset="1" stop-color="#F29800"/>
</linearGradient>
<linearGradient id="paint3_linear" x1="9" y1="-12.5" x2="33.3607" y2="68.6938" gradientUnits="userSpaceOnUse">
<stop stop-color="#FFED80"/>
<stop offset="0.961333" stop-color="#FFDB00"/>
</linearGradient>
</defs>
</svg>
