<svg width="112" height="111" viewBox="0 0 112 111" fill="none" xmlns="http://www.w3.org/2000/svg">
<mask id="mask0" mask-type="alpha" maskUnits="userSpaceOnUse" x="8" y="6" width="96" height="96">
<path fill-rule="evenodd" clip-rule="evenodd" d="M72 10.0232C72 6.55363 76.1151 4.72939 78.6861 7.0593L102.686 28.8093C103.523 29.5675 104 30.6441 104 31.7732V86C104 88.2092 102.209 90 100 90H72H40V97.9768C40 101.446 35.8849 103.271 33.3139 100.941L9.31392 79.1908C8.47724 78.4325 8 77.356 8 76.2268V34C8 31.7909 9.79086 30 12 30H40V22C40 19.7909 41.7909 18 44 18H72V10.0232Z" fill="#8DF7DB"/>
</mask>
<g mask="url(#mask0)">
<g filter="url(#filter0_dd)">
<path d="M72 10.0232C72 6.55359 76.1151 4.72935 78.6861 7.05926L102.686 28.8093C103.523 29.5675 104 30.6441 104 31.7732V86C104 88.2091 102.209 90 100 90H72V10.0232Z" fill="url(#paint0_linear)"/>
</g>
<g filter="url(#filter1_dd)">
<path d="M40 22C40 19.7909 41.7909 18 44 18H72V90H40V22Z" fill="url(#paint1_linear)"/>
</g>
<g filter="url(#filter2_dd)">
<path d="M8 34C8 31.7909 9.79086 30 12 30H40V97.9768C40 101.446 35.8849 103.271 33.3139 100.941L9.31392 79.1907C8.47724 78.4325 8 77.3559 8 76.2268V34Z" fill="url(#paint2_linear)"/>
</g>
</g>
<defs>
<filter id="filter0_dd" x="64" y="0.0153809" width="48" height="99.9847" filterUnits="userSpaceOnUse" color-interpolation-filters="sRGB">
<feFlood flood-opacity="0" result="BackgroundImageFix"/>
<feColorMatrix in="SourceAlpha" type="matrix" values="0 0 0 0 0 0 0 0 0 0 0 0 0 0 0 0 0 0 127 0"/>
<feOffset dy="0.4"/>
<feGaussianBlur stdDeviation="0.4"/>
<feColorMatrix type="matrix" values="0 0 0 0 0 0 0 0 0 0 0 0 0 0 0 0 0 0 0.24 0"/>
<feBlend mode="normal" in2="BackgroundImageFix" result="effect1_dropShadow"/>
<feColorMatrix in="SourceAlpha" type="matrix" values="0 0 0 0 0 0 0 0 0 0 0 0 0 0 0 0 0 0 127 0"/>
<feOffset dy="2"/>
<feGaussianBlur stdDeviation="4"/>
<feColorMatrix type="matrix" values="0 0 0 0 0 0 0 0 0 0 0 0 0 0 0 0 0 0 0.32 0"/>
<feBlend mode="normal" in2="effect1_dropShadow" result="effect2_dropShadow"/>
<feBlend mode="normal" in="SourceGraphic" in2="effect2_dropShadow" result="shape"/>
</filter>
<filter id="filter1_dd" x="32" y="12" width="48" height="88" filterUnits="userSpaceOnUse" color-interpolation-filters="sRGB">
<feFlood flood-opacity="0" result="BackgroundImageFix"/>
<feColorMatrix in="SourceAlpha" type="matrix" values="0 0 0 0 0 0 0 0 0 0 0 0 0 0 0 0 0 0 127 0"/>
<feOffset dy="0.4"/>
<feGaussianBlur stdDeviation="0.4"/>
<feColorMatrix type="matrix" values="0 0 0 0 0 0 0 0 0 0 0 0 0 0 0 0 0 0 0.24 0"/>
<feBlend mode="normal" in2="BackgroundImageFix" result="effect1_dropShadow"/>
<feColorMatrix in="SourceAlpha" type="matrix" values="0 0 0 0 0 0 0 0 0 0 0 0 0 0 0 0 0 0 127 0"/>
<feOffset dy="2"/>
<feGaussianBlur stdDeviation="4"/>
<feColorMatrix type="matrix" values="0 0 0 0 0 0 0 0 0 0 0 0 0 0 0 0 0 0 0.32 0"/>
<feBlend mode="normal" in2="effect1_dropShadow" result="effect2_dropShadow"/>
<feBlend mode="normal" in="SourceGraphic" in2="effect2_dropShadow" result="shape"/>
</filter>
<filter id="filter2_dd" x="0" y="24" width="48" height="87.9847" filterUnits="userSpaceOnUse" color-interpolation-filters="sRGB">
<feFlood flood-opacity="0" result="BackgroundImageFix"/>
<feColorMatrix in="SourceAlpha" type="matrix" values="0 0 0 0 0 0 0 0 0 0 0 0 0 0 0 0 0 0 127 0"/>
<feOffset dy="0.4"/>
<feGaussianBlur stdDeviation="0.4"/>
<feColorMatrix type="matrix" values="0 0 0 0 0 0 0 0 0 0 0 0 0 0 0 0 0 0 0.24 0"/>
<feBlend mode="normal" in2="BackgroundImageFix" result="effect1_dropShadow"/>
<feColorMatrix in="SourceAlpha" type="matrix" values="0 0 0 0 0 0 0 0 0 0 0 0 0 0 0 0 0 0 127 0"/>
<feOffset dy="2"/>
<feGaussianBlur stdDeviation="4"/>
<feColorMatrix type="matrix" values="0 0 0 0 0 0 0 0 0 0 0 0 0 0 0 0 0 0 0.32 0"/>
<feBlend mode="normal" in2="effect1_dropShadow" result="effect2_dropShadow"/>
<feBlend mode="normal" in="SourceGraphic" in2="effect2_dropShadow" result="shape"/>
</filter>
<linearGradient id="paint0_linear" x1="27" y1="6.5" x2="128" y2="110.5" gradientUnits="userSpaceOnUse">
<stop stop-color="#158915"/>
<stop offset="1" stop-color="#065F18"/>
</linearGradient>
<linearGradient id="paint1_linear" x1="22" y1="7.5" x2="85.0763" y2="100.757" gradientUnits="userSpaceOnUse">
<stop stop-color="#6AD116"/>
<stop offset="1" stop-color="#34A117"/>
</linearGradient>
<linearGradient id="paint2_linear" x1="-6" y1="14" x2="50.5" y2="113" gradientUnits="userSpaceOnUse">
<stop stop-color="#C3F488"/>
<stop offset="1" stop-color="#8FDC50"/>
</linearGradient>
</defs>
</svg>
