<svg width="99" height="104" viewBox="0 0 99 104" fill="none" xmlns="http://www.w3.org/2000/svg">
<mask id="mask0" mask-type="alpha" maskUnits="userSpaceOnUse" x="15" y="3" width="80" height="96">
<path fill-rule="evenodd" clip-rule="evenodd" d="M49.6284 4.82843C48.0663 3.26634 45.5336 3.26634 43.9715 4.82843L16.8283 31.9716C15.2662 33.5337 15.2662 36.0664 16.8283 37.6285L30.3998 51.2L16.8283 64.7715C15.2662 66.3336 15.2662 68.8663 16.8283 70.4284L43.9715 97.5716C45.5336 99.1337 48.0663 99.1337 49.6284 97.5716L79.6 67.6L93.1716 54.0284C94.7337 52.4663 94.7337 49.9336 93.1716 48.3715L79.6 34.8L79.6 34.7999L79.5999 34.8L49.6284 4.82843Z" fill="#8DF7DB"/>
</mask>
<g mask="url(#mask0)">
<g filter="url(#filter0_d)">
<path d="M43.9716 37.6284C45.5337 36.0663 48.0664 36.0663 49.6285 37.6284L79.6001 67.6L49.6285 97.5716C48.0664 99.1337 45.5337 99.1337 43.9716 97.5716L16.8284 70.4284C15.2663 68.8663 15.2663 66.3336 16.8284 64.7715L43.9716 37.6284Z" fill="url(#paint0_linear)"/>
</g>
<g filter="url(#filter1_d)">
<path d="M43.9716 4.82843C45.5337 3.26633 48.0664 3.26633 49.6285 4.82843L79.6001 34.8L49.6285 64.7717C48.0664 66.3338 45.5337 66.3338 43.9716 64.7717L16.8284 37.6285C15.2663 36.0664 15.2663 33.5337 16.8284 31.9716L43.9716 4.82843Z" fill="url(#paint1_linear)"/>
<path d="M79.6001 34.7999L93.1717 48.3715C94.7338 49.9336 94.7338 52.4663 93.1717 54.0284L79.6001 67.6L63.2001 51.1999L79.6001 34.7999Z" fill="url(#paint2_linear)"/>
</g>
<path fill-rule="evenodd" clip-rule="evenodd" d="M43.9715 37.6281L30.3999 51.1997L43.9715 64.7713C45.5336 66.3334 48.0663 66.3334 49.6284 64.7713L63.2 51.1997L49.6284 37.6281C49.627 37.6268 49.6257 37.6254 49.6243 37.6241C48.0619 36.066 45.5323 36.0674 43.9715 37.6281Z" fill="url(#paint3_linear)"/>
</g>
<defs>
<filter id="filter0_d" x="10" y="31.7999" width="73.6001" height="73.6001" filterUnits="userSpaceOnUse" color-interpolation-filters="sRGB">
<feFlood flood-opacity="0" result="BackgroundImageFix"/>
<feColorMatrix in="SourceAlpha" type="matrix" values="0 0 0 0 0 0 0 0 0 0 0 0 0 0 0 0 0 0 127 0"/>
<feOffset dy="1"/>
<feGaussianBlur stdDeviation="2"/>
<feColorMatrix type="matrix" values="0 0 0 0 0 0 0 0 0 0 0 0 0 0 0 0 0 0 0.15 0"/>
<feBlend mode="hard-light" in2="BackgroundImageFix" result="effect1_dropShadow"/>
<feBlend mode="normal" in="SourceGraphic" in2="effect1_dropShadow" result="shape"/>
</filter>
<filter id="filter1_d" x="6" y="-4" width="96.3433" height="81.6001" filterUnits="userSpaceOnUse" color-interpolation-filters="sRGB">
<feFlood flood-opacity="0" result="BackgroundImageFix"/>
<feColorMatrix in="SourceAlpha" type="matrix" values="0 0 0 0 0 0 0 0 0 0 0 0 0 0 0 0 0 0 127 0"/>
<feOffset dy="2"/>
<feGaussianBlur stdDeviation="4"/>
<feColorMatrix type="matrix" values="0 0 0 0 0 0 0 0 0 0 0 0 0 0 0 0 0 0 0.2 0"/>
<feBlend mode="normal" in2="BackgroundImageFix" result="effect1_dropShadow"/>
<feBlend mode="normal" in="SourceGraphic" in2="effect1_dropShadow" result="shape"/>
</filter>
<linearGradient id="paint0_linear" x1="46.8" y1="34.7999" x2="44.5413" y2="100.322" gradientUnits="userSpaceOnUse">
<stop stop-color="#8661C5"/>
<stop offset="1" stop-color="#5C428B"/>
</linearGradient>
<linearGradient id="paint1_linear" x1="15.5" y1="2.85821e-08" x2="43.22" y2="57.266" gradientUnits="userSpaceOnUse">
<stop stop-color="#EBC7FF"/>
<stop offset="0.699636" stop-color="#E4B4FF"/>
</linearGradient>
<linearGradient id="paint2_linear" x1="79.6001" y1="34.7999" x2="78.0413" y2="67.9632" gradientUnits="userSpaceOnUse">
<stop stop-color="#F8ECFF"/>
<stop offset="1" stop-color="#F1D9FF"/>
</linearGradient>
<linearGradient id="paint3_linear" x1="30.3999" y1="36.4565" x2="40.9086" y2="72.4509" gradientUnits="userSpaceOnUse">
<stop stop-color="#CD9EF0"/>
<stop offset="1" stop-color="#9F75D3"/>
</linearGradient>
</defs>
</svg>
