<svg width="96" height="96" viewBox="0 0 96 96" fill="none" xmlns="http://www.w3.org/2000/svg">
<mask id="mask0" mask-type="alpha" maskUnits="userSpaceOnUse" x="0" y="0" width="96" height="96">
<path fill-rule="evenodd" clip-rule="evenodd" d="M41.074 23.9998L16.0514 23.9998C14.6167 23.9998 13.2919 24.7681 12.5795 26.0133L1.13655 46.0131C0.432408 47.2438 0.432408 48.7553 1.13655 49.986L12.5795 69.9859C13.2919 71.2311 14.6167 71.9994 16.0514 71.9994H41.074L41.0739 71.9996L53.6534 93.9859C54.3659 95.2311 55.6907 95.9994 57.1253 95.9994H79.9487C81.3833 95.9994 82.7081 95.2311 83.4206 93.9859L94.8635 73.986C95.5676 72.7553 95.5676 71.2438 94.8635 70.0131L82.2685 47.9998H54.926L54.926 47.9997H82.2685L94.8635 25.9863C95.5676 24.7556 95.5676 23.2441 94.8635 22.0134L83.4206 2.01355C82.7081 0.768315 81.3833 0 79.9487 0H57.1253C55.6907 0 54.3659 0.768318 53.6534 2.01355L41.074 23.9998Z" fill="url(#paint0_linear)"/>
</mask>
<g mask="url(#mask0)">
<path d="M1.13655 46.0131C0.432403 47.2438 0.432403 48.7553 1.13655 49.986L12.5795 69.9859C13.2919 71.2311 14.6167 71.9994 16.0514 71.9994L41.1946 71.9994L54.9261 47.9996L41.1945 23.9998L16.0514 23.9998C14.6167 23.9998 13.2919 24.7681 12.5795 26.0133L1.13655 46.0131Z" fill="url(#paint1_linear)"/>
<path d="M41.0739 71.9996L53.6534 93.9859C54.3659 95.2311 55.6906 95.9994 57.1253 95.9994L79.9487 95.9994C81.3833 95.9994 82.7081 95.2311 83.4206 93.9859L94.8635 73.986C95.5676 72.7553 95.5676 71.2438 94.8635 70.0131L82.2685 47.9998L54.8055 47.9998L41.0739 71.9996Z" fill="url(#paint2_linear)"/>
<path d="M41.0739 23.9998L54.8055 47.9997L82.2685 47.9997L94.8635 25.9863C95.5676 24.7556 95.5676 23.2441 94.8635 22.0134L83.4205 2.01355C82.7081 0.768315 81.3833 -1.78038e-06 79.9487 -1.71701e-06L57.1253 -7.08954e-07C55.6906 -6.45588e-07 54.3659 0.768318 53.6534 2.01355L41.0739 23.9998Z" fill="url(#paint3_linear)"/>
<g filter="url(#filter0_dd)">
<mask id="mask1" mask-type="alpha" maskUnits="userSpaceOnUse" x="0" y="23" width="55" height="49">
<path d="M1.04907e-06 47.9996L13.7315 71.9994L41.1946 71.9994L54.9261 47.9996L41.1945 23.9998L13.7315 23.9998L1.04907e-06 47.9996Z" fill="#B689E1"/>
</mask>
<g mask="url(#mask1)">
<circle cx="54.6717" cy="47.9998" r="27.6065" fill="url(#paint4_linear)"/>
</g>
<mask id="mask2" mask-type="alpha" maskUnits="userSpaceOnUse" x="41" y="47" width="55" height="49">
<path d="M41.0739 71.9996L54.8055 95.9994L82.2685 95.9994L96 71.9996L82.2685 47.9998L54.8055 47.9998L41.0739 71.9996Z" fill="url(#paint5_linear)"/>
</mask>
<g mask="url(#mask2)">
<circle cx="54.6718" cy="47.9998" r="27.6065" fill="url(#paint6_linear)"/>
</g>
<mask id="mask3" mask-type="alpha" maskUnits="userSpaceOnUse" x="41" y="0" width="55" height="48">
<path d="M41.0739 23.9998L54.8055 47.9997L82.2685 47.9997L96 23.9998L82.2685 -1.81947e-06L54.8055 -6.06491e-07L41.0739 23.9998Z" fill="url(#paint7_linear)"/>
</mask>
<g mask="url(#mask3)">
<circle cx="54.6718" cy="47.9998" r="27.6065" fill="url(#paint8_linear)"/>
</g>
</g>
</g>
<defs>
<filter id="filter0_dd" x="19.0653" y="14.3933" width="71.213" height="71.2129" filterUnits="userSpaceOnUse" color-interpolation-filters="sRGB">
<feFlood flood-opacity="0" result="BackgroundImageFix"/>
<feColorMatrix in="SourceAlpha" type="matrix" values="0 0 0 0 0 0 0 0 0 0 0 0 0 0 0 0 0 0 127 0"/>
<feOffset dy="0.4"/>
<feGaussianBlur stdDeviation="0.4"/>
<feColorMatrix type="matrix" values="0 0 0 0 0 0 0 0 0 0 0 0 0 0 0 0 0 0 0.24 0"/>
<feBlend mode="normal" in2="BackgroundImageFix" result="effect1_dropShadow"/>
<feColorMatrix in="SourceAlpha" type="matrix" values="0 0 0 0 0 0 0 0 0 0 0 0 0 0 0 0 0 0 127 0"/>
<feOffset dy="2"/>
<feGaussianBlur stdDeviation="4"/>
<feColorMatrix type="matrix" values="0 0 0 0 0 0 0 0 0 0 0 0 0 0 0 0 0 0 0.32 0"/>
<feBlend mode="normal" in2="effect1_dropShadow" result="effect2_dropShadow"/>
<feBlend mode="normal" in="SourceGraphic" in2="effect2_dropShadow" result="shape"/>
</filter>
<linearGradient id="paint0_linear" x1="90.1708" y1="47.9997" x2="66.3424" y2="-1.91304e-06" gradientUnits="userSpaceOnUse">
<stop stop-color="#F69B63"/>
<stop offset="1" stop-color="#FFB685"/>
</linearGradient>
<linearGradient id="paint1_linear" x1="35.314" y1="71.9994" x2="18.3427" y2="23.9998" gradientUnits="userSpaceOnUse">
<stop stop-color="#922717"/>
<stop offset="1" stop-color="#D83B01"/>
</linearGradient>
<linearGradient id="paint2_linear" x1="85.8851" y1="95.9994" x2="64.2853" y2="47.9998" gradientUnits="userSpaceOnUse">
<stop stop-color="#D83B01"/>
<stop offset="1" stop-color="#ED7E43"/>
</linearGradient>
<linearGradient id="paint3_linear" x1="90.1708" y1="47.9997" x2="66.3424" y2="5.77693e-08" gradientUnits="userSpaceOnUse">
<stop stop-color="#F69B63"/>
<stop offset="1" stop-color="#FFB685"/>
</linearGradient>
<linearGradient id="paint4_linear" x1="31.7141" y1="26.2285" x2="54.514" y2="85.7138" gradientUnits="userSpaceOnUse">
<stop stop-color="#F69B63"/>
<stop offset="1" stop-color="#D83B01"/>
</linearGradient>
<linearGradient id="paint5_linear" x1="85.8851" y1="95.9994" x2="64.2853" y2="47.9998" gradientUnits="userSpaceOnUse">
<stop stop-color="#B689E1"/>
<stop offset="1" stop-color="#CD9EF0"/>
</linearGradient>
<linearGradient id="paint6_linear" x1="59.314" y1="47.9998" x2="71.8282" y2="75.7711" gradientUnits="userSpaceOnUse">
<stop stop-color="#F69B63"/>
<stop offset="1" stop-color="#ED7E43"/>
</linearGradient>
<linearGradient id="paint7_linear" x1="90.1708" y1="47.9997" x2="66.3424" y2="5.77693e-08" gradientUnits="userSpaceOnUse">
<stop stop-color="#EBC7FF"/>
<stop offset="1" stop-color="#F1D9FF"/>
</linearGradient>
<linearGradient id="paint8_linear" x1="54.6718" y1="20.3933" x2="68.5711" y2="47.9998" gradientUnits="userSpaceOnUse">
<stop stop-color="#FFC8A3"/>
<stop offset="1" stop-color="#F8B48A"/>
</linearGradient>
</defs>
</svg>
