<svg width="96" height="96" viewBox="0 0 96 96" fill="none" xmlns="http://www.w3.org/2000/svg">
<g clip-path="url(#clip0)">
<mask id="mask0" mask-type="alpha" maskUnits="userSpaceOnUse" x="5" y="6" width="85" height="85">
<path fill-rule="evenodd" clip-rule="evenodd" d="M6.82844 12.8284C4.30859 10.3086 6.09325 6 9.65687 6H86C88.2092 6 90 7.79086 90 10V86.3432C90 89.9068 85.6915 91.6915 83.1716 89.1716L71.9548 77.9548L71.9372 86.3639C71.9298 89.9246 67.6235 91.7016 65.1072 89.1823L54 78.0623V86.3431C54 89.9068 49.6914 91.6914 47.1716 89.1716L6.82846 48.8284C4.3086 46.3086 6.09326 42 9.65687 42H17.9793L6.81895 30.8268C4.30133 28.3063 6.0865 24 9.649 24H18L6.82844 12.8284Z" fill="url(#paint0_linear)"/>
</mask>
<g mask="url(#mask0)">
<path d="M6.82842 12.8284C4.30856 10.3086 6.09323 6 9.65685 6H86C88.2091 6 90 7.79086 90 10V86.3432C90 89.9068 85.6914 91.6915 83.1716 89.1716L6.82842 12.8284Z" fill="url(#paint1_linear)"/>
<g filter="url(#filter0_dd)">
<path d="M6.81893 30.8268C4.30131 28.3063 6.08647 24 9.64898 24H68.0593C70.2717 24 72.0639 25.796 72.0593 28.0084L71.9372 86.3639C71.9297 89.9246 67.6235 91.7016 65.1071 89.1823L6.81893 30.8268Z" fill="url(#paint2_linear)"/>
</g>
<g filter="url(#filter1_dd)">
<path d="M6.82843 48.8284C4.30857 46.3086 6.09323 42 9.65685 42H50C52.2091 42 54 43.7909 54 46V86.3431C54 89.9068 49.6914 91.6914 47.1716 89.1716L6.82843 48.8284Z" fill="url(#paint3_linear)"/>
</g>
</g>
</g>
<defs>
<filter id="filter0_dd" x="-2.35901" y="18" width="82.4184" height="82.3635" filterUnits="userSpaceOnUse" color-interpolation-filters="sRGB">
<feFlood flood-opacity="0" result="BackgroundImageFix"/>
<feColorMatrix in="SourceAlpha" type="matrix" values="0 0 0 0 0 0 0 0 0 0 0 0 0 0 0 0 0 0 127 0"/>
<feOffset dy="0.4"/>
<feGaussianBlur stdDeviation="0.4"/>
<feColorMatrix type="matrix" values="0 0 0 0 0 0 0 0 0 0 0 0 0 0 0 0 0 0 0.24 0"/>
<feBlend mode="normal" in2="BackgroundImageFix" result="effect1_dropShadow"/>
<feColorMatrix in="SourceAlpha" type="matrix" values="0 0 0 0 0 0 0 0 0 0 0 0 0 0 0 0 0 0 127 0"/>
<feOffset dy="2"/>
<feGaussianBlur stdDeviation="4"/>
<feColorMatrix type="matrix" values="0 0 0 0 0 0 0 0 0 0 0 0 0 0 0 0 0 0 0.32 0"/>
<feBlend mode="normal" in2="effect1_dropShadow" result="effect2_dropShadow"/>
<feBlend mode="normal" in="SourceGraphic" in2="effect2_dropShadow" result="shape"/>
</filter>
<filter id="filter1_dd" x="-2.35114" y="36" width="64.3511" height="64.3512" filterUnits="userSpaceOnUse" color-interpolation-filters="sRGB">
<feFlood flood-opacity="0" result="BackgroundImageFix"/>
<feColorMatrix in="SourceAlpha" type="matrix" values="0 0 0 0 0 0 0 0 0 0 0 0 0 0 0 0 0 0 127 0"/>
<feOffset dy="0.4"/>
<feGaussianBlur stdDeviation="0.4"/>
<feColorMatrix type="matrix" values="0 0 0 0 0 0 0 0 0 0 0 0 0 0 0 0 0 0 0.24 0"/>
<feBlend mode="normal" in2="BackgroundImageFix" result="effect1_dropShadow"/>
<feColorMatrix in="SourceAlpha" type="matrix" values="0 0 0 0 0 0 0 0 0 0 0 0 0 0 0 0 0 0 127 0"/>
<feOffset dy="2"/>
<feGaussianBlur stdDeviation="4"/>
<feColorMatrix type="matrix" values="0 0 0 0 0 0 0 0 0 0 0 0 0 0 0 0 0 0 0.32 0"/>
<feBlend mode="normal" in2="effect1_dropShadow" result="effect2_dropShadow"/>
<feBlend mode="normal" in="SourceGraphic" in2="effect2_dropShadow" result="shape"/>
</filter>
<linearGradient id="paint0_linear" x1="86.6701" y1="90.3635" x2="16.1965" y2="-2.04954" gradientUnits="userSpaceOnUse">
<stop stop-color="#F69B63"/>
<stop offset="1" stop-color="#FFB685"/>
</linearGradient>
<linearGradient id="paint1_linear" x1="108.86" y1="108.366" x2="29.9498" y2="-18.3979" gradientUnits="userSpaceOnUse">
<stop stop-color="#922717"/>
<stop offset="0.513532" stop-color="#D83B01"/>
</linearGradient>
<linearGradient id="paint2_linear" x1="17.1217" y1="7.4859" x2="84.2325" y2="103.945" gradientUnits="userSpaceOnUse">
<stop stop-color="#F69B63"/>
<stop offset="1" stop-color="#D83B01"/>
</linearGradient>
<linearGradient id="paint3_linear" x1="51.8684" y1="96" x2="6.75976" y2="36.8453" gradientUnits="userSpaceOnUse">
<stop stop-color="#F69B63"/>
<stop offset="1" stop-color="#FFB685"/>
</linearGradient>
<clipPath id="clip0">
<path d="M0 0H96V96H0V0Z" fill="white"/>
</clipPath>
</defs>
</svg>
