<svg width="96" height="96" viewBox="0 0 96 96" fill="none" xmlns="http://www.w3.org/2000/svg">
<mask id="mask0" mask-type="alpha" maskUnits="userSpaceOnUse" x="0" y="0" width="96" height="96">
<path d="M78 19.7975C78 18.3748 77.2443 17.0592 76.0155 16.3424L50.0155 1.1757C48.77 0.449187 47.23 0.449187 45.9845 1.1757L19.9845 16.3424C18.7556 17.0592 18 18.3748 18 19.7975V25.4041L9.99276 30.0494C8.75924 30.765 8 32.0832 8 33.5093V41.0754L1.96897 44.6301C0.748879 45.3492 -3.8147e-06 46.6598 -3.8147e-06 48.076V65.9239C-3.8147e-06 67.3402 0.748879 68.6508 1.96897 69.3699L45.9689 95.3029C47.2222 96.0416 48.7777 96.0416 50.031 95.3029L94.031 69.3699C95.2511 68.6508 96 67.3402 96 65.9239V48.076C96 46.6598 95.2511 45.3492 94.031 44.6301L88 41.0755V33.5093C88 32.0832 87.2407 30.765 86.0072 30.0494L78 25.4041V19.7975Z" fill="#C4C4C4"/>
</mask>
<g mask="url(#mask0)">
<path d="M94.031 44.6301C95.2511 45.3492 96 46.6598 96 48.0761V65.9239C96 67.3402 95.2511 68.6508 94.031 69.3699L50.031 95.3029C48.7777 96.0416 47.2222 96.0416 45.9689 95.3029L1.96897 69.3699C0.748875 68.6508 -3.8147e-06 67.3402 -3.8147e-06 65.9239V48.076C-3.8147e-06 46.6598 0.748882 45.3492 1.96897 44.6301L45.9689 18.6971C47.2222 17.9584 48.7777 17.9584 50.031 18.6971L94.031 44.6301Z" fill="url(#paint0_linear)"/>
<path d="M86.0072 61.9506C87.2408 61.235 88 59.9168 88 58.4907V33.5093C88 32.0832 87.2408 30.765 86.0072 30.0494L50.0072 9.16447C48.7659 8.44436 47.234 8.44436 45.9927 9.16447L9.99277 30.0494C8.75924 30.765 8 32.0832 8 33.5093V58.4907C8 59.9168 8.75924 61.235 9.99277 61.9506L45.9928 82.8355C47.2341 83.5556 48.766 83.5556 50.0073 82.8355L86.0072 61.9506Z" fill="url(#paint1_linear)"/>
<g filter="url(#filter0_dd)">
<path d="M45.9845 1.1757C47.23 0.449187 48.77 0.449187 50.0155 1.1757L76.0155 16.3424C77.2443 17.0592 78 18.3748 78 19.7975V50.2025C78 51.6252 77.2443 52.9408 76.0155 53.6576L50.0155 68.8243C48.77 69.5508 47.23 69.5508 45.9845 68.8243L19.9845 53.6576C18.7556 52.9408 18 51.6252 18 50.2025V19.7975C18 18.3748 18.7556 17.0592 19.9845 16.3424L45.9845 1.1757Z" fill="url(#paint2_linear)"/>
</g>
<path d="M45.9472 1.19566C47.2136 0.45681 48.7797 0.456737 50.0463 1.19546L75.8033 16.2187C76.7982 16.799 76.8157 18.2302 75.8354 18.8347L50.1318 34.6835C48.8228 35.4906 47.1706 35.4905 45.8617 34.6833L20.164 18.8346C19.1839 18.2301 19.2014 16.7991 20.1961 16.2188L45.9472 1.19566Z" fill="url(#paint3_linear)"/>
</g>
<defs>
<filter id="filter0_dd" x="9.99999" y="-5.36914" width="76" height="84.7384" filterUnits="userSpaceOnUse" color-interpolation-filters="sRGB">
<feFlood flood-opacity="0" result="BackgroundImageFix"/>
<feColorMatrix in="SourceAlpha" type="matrix" values="0 0 0 0 0 0 0 0 0 0 0 0 0 0 0 0 0 0 127 0"/>
<feOffset dy="0.4"/>
<feGaussianBlur stdDeviation="0.4"/>
<feColorMatrix type="matrix" values="0 0 0 0 0 0 0 0 0 0 0 0 0 0 0 0 0 0 0.24 0"/>
<feBlend mode="normal" in2="BackgroundImageFix" result="effect1_dropShadow"/>
<feColorMatrix in="SourceAlpha" type="matrix" values="0 0 0 0 0 0 0 0 0 0 0 0 0 0 0 0 0 0 127 0"/>
<feOffset dy="2"/>
<feGaussianBlur stdDeviation="4"/>
<feColorMatrix type="matrix" values="0 0 0 0 0 0 0 0 0 0 0 0 0 0 0 0 0 0 0.32 0"/>
<feBlend mode="normal" in2="effect1_dropShadow" result="effect2_dropShadow"/>
<feBlend mode="normal" in="SourceGraphic" in2="effect2_dropShadow" result="shape"/>
</filter>
<linearGradient id="paint0_linear" x1="4.5" y1="-2.00001" x2="154.25" y2="-23.3765" gradientUnits="userSpaceOnUse">
<stop offset="0.209466" stop-color="#158915"/>
<stop offset="1" stop-color="#065F18"/>
</linearGradient>
<linearGradient id="paint1_linear" x1="88" y1="84" x2="69.679" y2="-5.61037" gradientUnits="userSpaceOnUse">
<stop stop-color="#34A117"/>
<stop offset="1" stop-color="#6AD116"/>
</linearGradient>
<linearGradient id="paint2_linear" x1="18" y1="0" x2="87.4218" y2="60.3143" gradientUnits="userSpaceOnUse">
<stop stop-color="#8FDC50"/>
<stop offset="1" stop-color="#7BCA52"/>
</linearGradient>
<linearGradient id="paint3_linear" x1="18.9375" y1="0.233766" x2="23.2659" y2="42.0028" gradientUnits="userSpaceOnUse">
<stop stop-color="#C3F488"/>
<stop offset="1" stop-color="#8FDC50"/>
</linearGradient>
</defs>
</svg>
