<svg width="96" height="100" viewBox="0 0 96 100" fill="none" xmlns="http://www.w3.org/2000/svg">
<mask id="mask0" mask-type="alpha" maskUnits="userSpaceOnUse" x="0" y="6" width="96" height="84">
<path d="M29.8182 71.7921V72.0001H18C8.05888 72.0001 0 63.9412 0 54.0001L2.30533e-06 20.9546C2.6772e-06 12.7206 6.67503 6.04553 14.9091 6.04553C18.6664 6.04553 22.0991 7.43543 24.7211 9.72912C22.1118 7.44649 18.6996 6.05894 14.9635 6.04558L15 6.04554L46.7034 6.04554C46.9228 6.04554 47.1412 6.04925 47.3588 6.05663C47.5716 6.04925 47.7854 6.04553 48 6.04553C58.0415 6.04553 66.1818 14.1858 66.1818 24.2274L66.1818 75.0923C66.1818 75.124 66.1819 75.1557 66.1821 75.1874C66.1819 75.1553 66.1818 75.1231 66.1818 75.091L66.1818 24.0001H78C87.9411 24.0001 96 32.059 96 42.0001V75.091C96 83.3251 89.325 90.0001 81.0909 90.0001C72.9691 90.0001 66.3642 83.5058 66.1855 75.4269C66.362 83.44 72.8605 89.8945 80.8908 90.0001H48.8182C48.2231 90.0001 47.6344 89.9727 47.0532 89.9192C37.4618 89.4272 29.8341 81.5022 29.8182 71.7921Z" fill="url(#paint0_linear)"/>
</mask>
<g mask="url(#mask0)">
<path d="M29.8182 72L29.8182 20.9545C29.8182 12.7205 23.1431 6.04545 14.9091 6.04545C6.67502 6.04545 -6.85954e-06 12.7205 -7.23141e-06 20.9545L-8.72382e-06 54C-9.17279e-06 63.9411 8.05887 72 18 72L29.8182 72Z" fill="#2064AE"/>
<path d="M81.0909 90C89.325 90 96 83.325 96 75.0909L96 42C96 32.0589 87.9412 24 78 24L66.1819 24L66.1818 75.0909C66.1818 83.325 72.8569 90 81.0909 90Z" fill="url(#paint1_linear)"/>
<g filter="url(#filter0_d)">
<path fill-rule="evenodd" clip-rule="evenodd" d="M47.0519 89.9189C37.4578 89.4261 29.8289 81.4962 29.8181 71.782L29.8181 39.3152L29.8181 20.9542C29.8181 12.7442 23.182 6.08411 14.981 6.04534L15 6.04532L46.7034 6.04532C46.9226 6.04532 47.1409 6.04903 47.3583 6.0564C47.5713 6.04901 47.7852 6.04529 48 6.04529C58.0415 6.04529 66.1818 14.1856 66.1818 24.2271L66.1818 56.9447L66.1818 75.0921C66.1818 83.2606 72.751 89.8948 80.8945 89.9999H48.8181C48.2226 89.9999 47.6335 89.9725 47.0519 89.9189Z" fill="url(#paint2_linear)"/>
</g>
</g>
<defs>
<filter id="filter0_d" x="6.98105" y="0.0452874" width="81.9135" height="99.9546" filterUnits="userSpaceOnUse" color-interpolation-filters="sRGB">
<feFlood flood-opacity="0" result="BackgroundImageFix"/>
<feColorMatrix in="SourceAlpha" type="matrix" values="0 0 0 0 0 0 0 0 0 0 0 0 0 0 0 0 0 0 127 0"/>
<feOffset dy="2"/>
<feGaussianBlur stdDeviation="4"/>
<feColorMatrix type="matrix" values="0 0 0 0 0 0 0 0 0 0 0 0 0 0 0 0 0 0 0.2 0"/>
<feBlend mode="normal" in2="BackgroundImageFix" result="effect1_dropShadow"/>
<feBlend mode="normal" in="SourceGraphic" in2="effect1_dropShadow" result="shape"/>
</filter>
<linearGradient id="paint0_linear" x1="22.2036" y1="-2.99355" x2="68.4311" y2="93.5494" gradientUnits="userSpaceOnUse">
<stop stop-color="#40C4F5"/>
<stop offset="1" stop-color="#0095E6"/>
</linearGradient>
<linearGradient id="paint1_linear" x1="95.758" y1="85.1783" x2="59.9937" y2="78.7781" gradientUnits="userSpaceOnUse">
<stop stop-color="#7CECFF"/>
<stop offset="1" stop-color="#A7F2FF"/>
</linearGradient>
<linearGradient id="paint2_linear" x1="22.2196" y1="-2.9938" x2="68.4532" y2="93.5416" gradientUnits="userSpaceOnUse">
<stop stop-color="#40C4F5"/>
<stop offset="1" stop-color="#0095E6"/>
</linearGradient>
</defs>
</svg>
