<svg width="96" height="96" viewBox="0 0 96 96" fill="none" xmlns="http://www.w3.org/2000/svg">
<mask id="mask0" mask-type="alpha" maskUnits="userSpaceOnUse" x="0" y="6" width="96" height="85">
<path d="M4 6H29.4942C30.6448 6 31.7397 6.49547 32.4991 7.35982L48.0016 25.0039L63.5009 7.36011C64.2603 6.49558 65.3553 6 66.506 6H92C94.2091 6 96 7.79086 96 10V34.9126C96 35.8707 95.6562 36.7969 95.031 37.5228L51.0311 88.6195C49.4353 90.473 46.5646 90.4731 44.9687 88.6197L0.968911 37.5228C0.343809 36.7969 0 35.8707 0 34.9127V10C0 7.79086 1.79086 6 4 6Z" fill="url(#paint0_linear)"/>
</mask>
<g mask="url(#mask0)">
<path d="M66.506 6H92C94.2091 6 96 7.79086 96 10V34.9126C96 35.8707 95.6562 36.7969 95.031 37.5228L51.031 88.617C49.4352 90.4701 46.5648 90.4701 44.969 88.617L18.8076 58.2373L63.5009 7.36011C64.2603 6.49558 65.3553 6 66.506 6Z" fill="url(#paint1_linear)"/>
<g filter="url(#filter0_dd)">
<path d="M29.4942 6H4C1.79086 6 0 7.79086 0 10V34.9127C0 35.8707 0.343809 36.7969 0.968911 37.5228L44.9687 88.6197C46.5646 90.4731 49.4353 90.473 51.0311 88.6195L77.1953 58.2305L32.4991 7.35982C31.7397 6.49547 30.6448 6 29.4942 6Z" fill="url(#paint2_linear)"/>
</g>
<path fill-rule="evenodd" clip-rule="evenodd" d="M48.0016 25.0039L18.8076 58.2373L44.969 88.617C46.5648 90.4701 49.4352 90.4701 51.031 88.617L61.6956 76.233L77.1953 58.2305L48.0016 25.0039Z" fill="url(#paint3_linear)"/>
</g>
<defs>
<filter id="filter0_dd" x="-8" y="0" width="93.1953" height="100.01" filterUnits="userSpaceOnUse" color-interpolation-filters="sRGB">
<feFlood flood-opacity="0" result="BackgroundImageFix"/>
<feColorMatrix in="SourceAlpha" type="matrix" values="0 0 0 0 0 0 0 0 0 0 0 0 0 0 0 0 0 0 127 0"/>
<feOffset dy="0.4"/>
<feGaussianBlur stdDeviation="0.4"/>
<feColorMatrix type="matrix" values="0 0 0 0 0 0 0 0 0 0 0 0 0 0 0 0 0 0 0.24 0"/>
<feBlend mode="normal" in2="BackgroundImageFix" result="effect1_dropShadow"/>
<feColorMatrix in="SourceAlpha" type="matrix" values="0 0 0 0 0 0 0 0 0 0 0 0 0 0 0 0 0 0 127 0"/>
<feOffset dy="2"/>
<feGaussianBlur stdDeviation="4"/>
<feColorMatrix type="matrix" values="0 0 0 0 0 0 0 0 0 0 0 0 0 0 0 0 0 0 0.32 0"/>
<feBlend mode="normal" in2="effect1_dropShadow" result="effect2_dropShadow"/>
<feBlend mode="normal" in="SourceGraphic" in2="effect2_dropShadow" result="shape"/>
</filter>
<linearGradient id="paint0_linear" x1="-21.5" y1="-19" x2="51.0007" y2="64.2579" gradientUnits="userSpaceOnUse">
<stop stop-color="#EBC7FF"/>
<stop offset="0.493452" stop-color="#E4B4FF"/>
</linearGradient>
<linearGradient id="paint1_linear" x1="28" y1="-3.99999" x2="91.1848" y2="89.4857" gradientUnits="userSpaceOnUse">
<stop stop-color="#8661C5"/>
<stop offset="1" stop-color="#5C428B"/>
</linearGradient>
<linearGradient id="paint2_linear" x1="-21.5" y1="-19" x2="51.0007" y2="64.2578" gradientUnits="userSpaceOnUse">
<stop stop-color="#EBC7FF"/>
<stop offset="0.493452" stop-color="#E4B4FF"/>
</linearGradient>
<linearGradient id="paint3_linear" x1="-6.1663" y1="2.53476" x2="34.534" y2="116.672" gradientUnits="userSpaceOnUse">
<stop stop-color="#CD9EF0"/>
<stop offset="0.894187" stop-color="#9F75D3"/>
</linearGradient>
</defs>
</svg>
