<svg width="96" height="96" viewBox="0 0 96 96" fill="none" xmlns="http://www.w3.org/2000/svg">
<mask id="mask0" mask-type="alpha" maskUnits="userSpaceOnUse" x="0" y="0" width="96" height="96">
<path d="M48 3.99939C48 1.79025 46.2029 -0.0179925 44.0012 0.163586C19.3625 2.19562 0 22.8363 0 47.9994C0 74.5091 21.4903 95.9995 48 95.9995C73.1631 95.9995 93.8038 76.6369 95.8359 51.9982C96.0174 49.7965 94.2092 47.9994 92.0001 47.9994L84 47.9994C84 28.1171 67.8823 11.9994 48 11.9994V3.99939Z" fill="url(#paint0_linear)"/>
</mask>
<g mask="url(#mask0)">
<path fill-rule="evenodd" clip-rule="evenodd" d="M48 -0.000610352C21.4903 -0.000610352 0 21.4897 0 47.9994C0 74.5091 21.4903 95.9995 48 95.9995C74.5097 95.9995 96.0001 74.5091 96.0001 47.9994C96.0001 47.9994 96.0001 47.9994 96.0001 47.9994L48 47.9994V-0.000610352Z" fill="url(#paint1_linear)"/>
<path d="M48 77.9994C48 80.2085 49.7989 82.0241 51.9931 81.7674C68.8891 79.7908 82 65.4262 82 47.9994C82 29.2217 66.7777 13.9994 48 13.9994C30.5732 13.9994 16.2086 27.1103 14.232 44.0063C13.9753 46.2005 15.7909 47.9994 18 47.9994L48 47.9994V77.9994Z" fill="url(#paint2_linear)"/>
<g filter="url(#filter0_dd)">
<circle cx="48" cy="47.9994" r="20" fill="url(#paint3_linear)"/>
</g>
</g>
<defs>
<filter id="filter0_dd" x="20" y="21.9994" width="56" height="56" filterUnits="userSpaceOnUse" color-interpolation-filters="sRGB">
<feFlood flood-opacity="0" result="BackgroundImageFix"/>
<feColorMatrix in="SourceAlpha" type="matrix" values="0 0 0 0 0 0 0 0 0 0 0 0 0 0 0 0 0 0 127 0"/>
<feOffset dy="0.4"/>
<feGaussianBlur stdDeviation="0.4"/>
<feColorMatrix type="matrix" values="0 0 0 0 0 0 0 0 0 0 0 0 0 0 0 0 0 0 0.24 0"/>
<feBlend mode="normal" in2="BackgroundImageFix" result="effect1_dropShadow"/>
<feColorMatrix in="SourceAlpha" type="matrix" values="0 0 0 0 0 0 0 0 0 0 0 0 0 0 0 0 0 0 127 0"/>
<feOffset dy="2"/>
<feGaussianBlur stdDeviation="4"/>
<feColorMatrix type="matrix" values="0 0 0 0 0 0 0 0 0 0 0 0 0 0 0 0 0 0 0.32 0"/>
<feBlend mode="normal" in2="effect1_dropShadow" result="effect2_dropShadow"/>
<feBlend mode="normal" in="SourceGraphic" in2="effect2_dropShadow" result="shape"/>
</filter>
<linearGradient id="paint0_linear" x1="1.5" y1="0.622767" x2="20.3806" y2="109.942" gradientUnits="userSpaceOnUse">
<stop stop-color="#C3F488"/>
<stop offset="1" stop-color="#8FDC50"/>
</linearGradient>
<linearGradient id="paint1_linear" x1="-9.00001" y1="3.77467" x2="6.76666" y2="110.005" gradientUnits="userSpaceOnUse">
<stop stop-color="#158915"/>
<stop offset="1" stop-color="#065F18"/>
</linearGradient>
<linearGradient id="paint2_linear" x1="14" y1="13.9994" x2="82.1001" y2="83.0263" gradientUnits="userSpaceOnUse">
<stop stop-color="#7BCA52"/>
<stop offset="1" stop-color="#4FB918"/>
</linearGradient>
<linearGradient id="paint3_linear" x1="28.625" y1="28.2591" x2="36.4919" y2="73.8088" gradientUnits="userSpaceOnUse">
<stop stop-color="#C3F488"/>
<stop offset="1" stop-color="#8FDC50"/>
</linearGradient>
</defs>
</svg>
