<svg width="112" height="100" viewBox="0 0 112 100" fill="none" xmlns="http://www.w3.org/2000/svg">
<mask id="mask0" mask-type="alpha" maskUnits="userSpaceOnUse" x="8" y="6" width="96" height="85">
<path fill-rule="evenodd" clip-rule="evenodd" d="M85.6836 7.42814C84.1601 6.04967 81.8399 6.04967 80.3164 7.42814L66.8877 19.5778L63.751 16.6062C62.2082 15.1446 59.7918 15.1446 58.249 16.6062L46.1081 28.1082L43.8284 25.8284C42.2663 24.2663 39.7337 24.2663 38.1716 25.8284L26.929 37.071C25.0536 38.9463 24 41.4899 24 44.142V46.0006H24.0001V48.0596L24.0001 52.3046C24 63.5743 19.2459 74.3211 10.907 81.9019L9.65574 83.0395C6.95042 85.4988 8.6903 89.9992 12.3464 89.9992H12.8335C12.8702 90.0001 12.9071 90.0005 12.9442 90.0005L35.0001 90.0005C35.0765 90.0005 35.1529 90.0003 35.2293 89.9999H59C83.8528 89.9999 104 69.8527 104 44.9999V30.017L104 28.4379C104 25.6122 102.804 22.9183 100.709 21.0225L85.6836 7.42814Z" fill="url(#paint0_linear)"/>
</mask>
<g mask="url(#mask0)">
<g filter="url(#filter0_dd)">
<path fill-rule="evenodd" clip-rule="evenodd" d="M85.6836 7.42814C84.1601 6.04967 81.8399 6.04967 80.3164 7.42814L65.2909 21.0225C63.1955 22.9183 62 25.6122 62 28.4379V32H62.0013V35.4908L62.0013 38.4783C62.0012 54.3083 53.6835 68.9739 40.0976 77.0987L30.9539 82.5669C27.4695 84.6507 28.947 89.9999 33.0069 89.9999H59C83.8528 89.9999 104 69.8527 104 44.9999V30.017L104 28.4379C104 25.6122 102.804 22.9183 100.709 21.0225L85.6836 7.42814Z" fill="url(#paint1_linear)"/>
</g>
<g filter="url(#filter1_dd)">
<path fill-rule="evenodd" clip-rule="evenodd" d="M63.751 16.6062C62.2082 15.1446 59.7918 15.1446 58.249 16.6062L45.1225 29.0419C43.1291 30.9304 42 33.5555 42 36.3014L42 38.0002V41.8791C42 57.275 33.3015 71.3496 19.531 78.2349L11.1553 82.4228C7.38002 84.3105 8.72327 90.0005 12.9442 90.0005L35.0001 90.0005C59.8528 90.0004 79.9999 69.8532 79.9999 45.0005L80 39.0001L80 36.3013C80 33.5554 78.8708 30.9303 76.8774 29.0418L63.751 16.6062Z" fill="url(#paint2_linear)"/>
</g>
<g filter="url(#filter2_dd)">
<path fill-rule="evenodd" clip-rule="evenodd" d="M43.8284 25.8284C42.2663 24.2663 39.7337 24.2663 38.1716 25.8284L26.929 37.071C25.0536 38.9463 24 41.4899 24 44.142V46.0006H24.0001V48.0596L24.0001 52.3046C24 63.5743 19.2459 74.3211 10.907 81.9019L9.65573 83.0395C6.95042 85.4988 8.6903 89.9992 12.3464 89.9992H12.9999C37.5181 89.9992 57.4564 70.391 57.989 46.0006H57.9999L57.9999 44.9992L57.9999 44.1422C57.9999 41.49 56.9464 38.9464 55.071 37.0711L43.8284 25.8284Z" fill="url(#paint3_linear)"/>
</g>
</g>
<defs>
<filter id="filter0_dd" x="21" y="0.394287" width="91" height="99.6056" filterUnits="userSpaceOnUse" color-interpolation-filters="sRGB">
<feFlood flood-opacity="0" result="BackgroundImageFix"/>
<feColorMatrix in="SourceAlpha" type="matrix" values="0 0 0 0 0 0 0 0 0 0 0 0 0 0 0 0 0 0 127 0"/>
<feOffset dy="0.4"/>
<feGaussianBlur stdDeviation="0.4"/>
<feColorMatrix type="matrix" values="0 0 0 0 0 0 0 0 0 0 0 0 0 0 0 0 0 0 0.24 0"/>
<feBlend mode="normal" in2="BackgroundImageFix" result="effect1_dropShadow"/>
<feColorMatrix in="SourceAlpha" type="matrix" values="0 0 0 0 0 0 0 0 0 0 0 0 0 0 0 0 0 0 127 0"/>
<feOffset dy="2"/>
<feGaussianBlur stdDeviation="4"/>
<feColorMatrix type="matrix" values="0 0 0 0 0 0 0 0 0 0 0 0 0 0 0 0 0 0 0.32 0"/>
<feBlend mode="normal" in2="effect1_dropShadow" result="effect2_dropShadow"/>
<feBlend mode="normal" in="SourceGraphic" in2="effect2_dropShadow" result="shape"/>
</filter>
<filter id="filter1_dd" x="0.938171" y="9.51001" width="87.0618" height="90.4905" filterUnits="userSpaceOnUse" color-interpolation-filters="sRGB">
<feFlood flood-opacity="0" result="BackgroundImageFix"/>
<feColorMatrix in="SourceAlpha" type="matrix" values="0 0 0 0 0 0 0 0 0 0 0 0 0 0 0 0 0 0 127 0"/>
<feOffset dy="0.4"/>
<feGaussianBlur stdDeviation="0.4"/>
<feColorMatrix type="matrix" values="0 0 0 0 0 0 0 0 0 0 0 0 0 0 0 0 0 0 0.24 0"/>
<feBlend mode="normal" in2="BackgroundImageFix" result="effect1_dropShadow"/>
<feColorMatrix in="SourceAlpha" type="matrix" values="0 0 0 0 0 0 0 0 0 0 0 0 0 0 0 0 0 0 127 0"/>
<feOffset dy="2"/>
<feGaussianBlur stdDeviation="4"/>
<feColorMatrix type="matrix" values="0 0 0 0 0 0 0 0 0 0 0 0 0 0 0 0 0 0 0.32 0"/>
<feBlend mode="normal" in2="effect1_dropShadow" result="effect2_dropShadow"/>
<feBlend mode="normal" in="SourceGraphic" in2="effect2_dropShadow" result="shape"/>
</filter>
<filter id="filter2_dd" x="0.338379" y="18.6569" width="65.6615" height="81.3424" filterUnits="userSpaceOnUse" color-interpolation-filters="sRGB">
<feFlood flood-opacity="0" result="BackgroundImageFix"/>
<feColorMatrix in="SourceAlpha" type="matrix" values="0 0 0 0 0 0 0 0 0 0 0 0 0 0 0 0 0 0 127 0"/>
<feOffset dy="0.4"/>
<feGaussianBlur stdDeviation="0.4"/>
<feColorMatrix type="matrix" values="0 0 0 0 0 0 0 0 0 0 0 0 0 0 0 0 0 0 0.24 0"/>
<feBlend mode="normal" in2="BackgroundImageFix" result="effect1_dropShadow"/>
<feColorMatrix in="SourceAlpha" type="matrix" values="0 0 0 0 0 0 0 0 0 0 0 0 0 0 0 0 0 0 127 0"/>
<feOffset dy="2"/>
<feGaussianBlur stdDeviation="4"/>
<feColorMatrix type="matrix" values="0 0 0 0 0 0 0 0 0 0 0 0 0 0 0 0 0 0 0.32 0"/>
<feBlend mode="normal" in2="effect1_dropShadow" result="effect2_dropShadow"/>
<feBlend mode="normal" in="SourceGraphic" in2="effect2_dropShadow" result="shape"/>
</filter>
<linearGradient id="paint0_linear" x1="15.327" y1="7.07291" x2="47.3196" y2="99.4874" gradientUnits="userSpaceOnUse">
<stop stop-color="#A7F2FF"/>
<stop offset="1" stop-color="#7CECFF"/>
</linearGradient>
<linearGradient id="paint1_linear" x1="56.5311" y1="34.6137" x2="86.0732" y2="84.0971" gradientUnits="userSpaceOnUse">
<stop stop-color="#0078D4"/>
<stop offset="1" stop-color="#2064AE"/>
</linearGradient>
<linearGradient id="paint2_linear" x1="38.2015" y1="5.91222" x2="119.718" y2="83.0229" gradientUnits="userSpaceOnUse">
<stop stop-color="#40C4F5"/>
<stop offset="1" stop-color="#0095E6"/>
</linearGradient>
<linearGradient id="paint3_linear" x1="11.9664" y1="25.1872" x2="45.1161" y2="88.7928" gradientUnits="userSpaceOnUse">
<stop stop-color="#A7F2FF"/>
<stop offset="1" stop-color="#7CECFF"/>
</linearGradient>
</defs>
</svg>
