<svg width="96" height="96" viewBox="0 0 96 96" fill="none" xmlns="http://www.w3.org/2000/svg">
<mask id="mask0" mask-type="alpha" maskUnits="userSpaceOnUse" x="0" y="0" width="96" height="96">
<path fill-rule="evenodd" clip-rule="evenodd" d="M0 48C0 52.2526 2.94943 55.8163 6.91426 56.7571C10.3435 72.9251 23.0749 85.6565 39.2429 89.0857C40.1837 93.0506 43.7474 96 48 96C52.2526 96 55.8163 93.0506 56.7571 89.0857C72.9252 85.6565 85.6565 72.9251 89.0857 56.7571C93.0506 55.8163 96 52.2526 96 48C96 43.7474 93.0506 40.1837 89.0857 39.2429C85.6565 23.0749 72.9252 10.3435 56.7571 6.91426C55.8163 2.94943 52.2526 0 48 0C43.7474 0 40.1837 2.94943 39.2429 6.91426C23.0749 10.3435 10.3435 23.0749 6.91426 39.2429C2.94943 40.1837 0 43.7474 0 48Z" fill="#8DF7DB"/>
</mask>
<g mask="url(#mask0)">
<circle cx="48" cy="48" r="48" fill="url(#paint0_linear)"/>
<path fill-rule="evenodd" clip-rule="evenodd" d="M52 17.0645C54.9634 15.5918 57 12.5337 57 9C57 4.02944 52.9706 0 48 0C43.0294 0 39 4.02944 39 9C39 12.5337 41.0366 15.5918 44 17.0645V23H52V17.0645Z" fill="url(#paint1_linear)"/>
<path fill-rule="evenodd" clip-rule="evenodd" d="M44 78.9355C41.0366 80.4082 39 83.4663 39 87C39 91.9706 43.0294 96 48 96C52.9706 96 57 91.9706 57 87C57 83.4663 54.9634 80.4082 52 78.9355L52 73L44 73L44 78.9355Z" fill="url(#paint2_linear)"/>
<path fill-rule="evenodd" clip-rule="evenodd" d="M17.0645 44C15.5918 41.0366 12.5337 39 9 39C4.02944 39 -6.10673e-07 43.0294 -3.93402e-07 48C-1.76132e-07 52.9706 4.02944 57 9 57C12.5337 57 15.5918 54.9634 17.0645 52L23 52L23 44L17.0645 44Z" fill="url(#paint3_linear)"/>
<g filter="url(#filter0_dd)">
<circle cx="48" cy="48" r="28" fill="url(#paint4_linear)"/>
<path fill-rule="evenodd" clip-rule="evenodd" d="M48 60C53.2249 60 57.6698 56.6608 59.3172 52H78.9355C80.4082 54.9634 83.4663 57 87 57C91.9706 57 96 52.9706 96 48C96 43.0294 91.9706 39 87 39C83.4663 39 80.4082 41.0366 78.9355 44H59.3172C57.6698 39.3392 53.2249 36 48 36C41.3726 36 36 41.3726 36 48C36 54.6274 41.3726 60 48 60Z" fill="url(#paint5_linear)"/>
</g>
</g>
<defs>
<filter id="filter0_dd" x="12" y="14" width="92" height="72" filterUnits="userSpaceOnUse" color-interpolation-filters="sRGB">
<feFlood flood-opacity="0" result="BackgroundImageFix"/>
<feColorMatrix in="SourceAlpha" type="matrix" values="0 0 0 0 0 0 0 0 0 0 0 0 0 0 0 0 0 0 127 0"/>
<feOffset dy="0.4"/>
<feGaussianBlur stdDeviation="0.4"/>
<feColorMatrix type="matrix" values="0 0 0 0 0 0 0 0 0 0 0 0 0 0 0 0 0 0 0.24 0"/>
<feBlend mode="normal" in2="BackgroundImageFix" result="effect1_dropShadow"/>
<feColorMatrix in="SourceAlpha" type="matrix" values="0 0 0 0 0 0 0 0 0 0 0 0 0 0 0 0 0 0 127 0"/>
<feOffset dy="2"/>
<feGaussianBlur stdDeviation="4"/>
<feColorMatrix type="matrix" values="0 0 0 0 0 0 0 0 0 0 0 0 0 0 0 0 0 0 0.32 0"/>
<feBlend mode="normal" in2="effect1_dropShadow" result="effect2_dropShadow"/>
<feBlend mode="normal" in="SourceGraphic" in2="effect2_dropShadow" result="shape"/>
</filter>
<linearGradient id="paint0_linear" x1="22.7027" y1="11.3514" x2="72.6487" y2="84.6487" gradientUnits="userSpaceOnUse">
<stop stop-color="#009CA8"/>
<stop offset="1" stop-color="#007D85"/>
</linearGradient>
<linearGradient id="paint1_linear" x1="37.0099" y1="-11.5001" x2="65.41" y2="-0.624697" gradientUnits="userSpaceOnUse">
<stop stop-color="#D2F6F9"/>
<stop offset="1" stop-color="#82EBF1"/>
<stop offset="1" stop-color="#82EBF1"/>
</linearGradient>
<linearGradient id="paint2_linear" x1="57" y1="97.5" x2="28.8941" y2="94.7634" gradientUnits="userSpaceOnUse">
<stop stop-color="#82EBF1"/>
<stop offset="1" stop-color="#D2F6F9"/>
</linearGradient>
<linearGradient id="paint3_linear" x1="-2.5" y1="27.5" x2="29.5635" y2="35.968" gradientUnits="userSpaceOnUse">
<stop stop-color="#D2F6F9"/>
<stop offset="1" stop-color="#82EBF1"/>
<stop offset="1" stop-color="#82EBF1"/>
</linearGradient>
<linearGradient id="paint4_linear" x1="20" y1="12" x2="71.5" y2="81" gradientUnits="userSpaceOnUse">
<stop stop-color="#36E3EE"/>
<stop offset="1" stop-color="#00B1BE"/>
</linearGradient>
<linearGradient id="paint5_linear" x1="17" y1="23.5" x2="73" y2="72" gradientUnits="userSpaceOnUse">
<stop stop-color="#D2F6F9"/>
<stop offset="0.630028" stop-color="#82EBF1"/>
<stop offset="1" stop-color="#82EBF1"/>
</linearGradient>
</defs>
</svg>
